<?xml version="1.0" standalone="no"?>
<!DOCTYPE svg PUBLIC "-//W3C//DTD SVG 20010904//EN"
 "http://www.w3.org/TR/2001/REC-SVG-20010904/DTD/svg10.dtd">
<svg version="1.0" xmlns="http://www.w3.org/2000/svg"
 width="883.000000pt" height="1280.000000pt" viewBox="0 0 883.000000 1280.000000"
 preserveAspectRatio="xMidYMid meet">
<metadata>
Created by potrace 1.15, written by Peter Selinger 2001-2017
</metadata>
<g transform="translate(0.000000,1280.000000) scale(0.100000,-0.100000)"
fill="#000000" stroke="none">
<path d="M3205 12775 c-70 -26 -71 -26 -280 -20 -203 7 -213 6 -312 -19 -375
-93 -583 -284 -583 -536 l0 -67 42 -29 c33 -24 52 -29 97 -29 76 0 120 24 288
157 199 157 316 207 419 179 63 -17 150 -78 251 -177 106 -103 123 -139 145
-300 12 -95 15 -101 56 -147 44 -49 49 -80 9 -54 -34 22 -102 35 -239 47 -132
11 -190 26 -237 60 -51 35 -84 42 -236 50 -171 9 -248 25 -499 104 -428 135
-606 127 -995 -44 -87 -39 -238 -97 -335 -130 -253 -85 -313 -119 -430 -237
-114 -115 -287 -394 -336 -543 -13 -40 -23 -104 -26 -165 -7 -130 12 -631 27
-717 13 -73 20 -79 105 -98 122 -28 316 80 402 223 68 112 50 287 -28 287 -28
0 -25 -17 11 -57 24 -28 29 -41 24 -62 -14 -55 -87 -188 -131 -239 -83 -95
-160 -122 -242 -85 -20 9 -53 22 -72 28 -32 10 -35 14 -38 53 -3 42 -2 43 18
32 30 -16 44 0 43 46 -1 46 -8 52 -31 24 -34 -42 -31 -6 9 85 l39 90 0 -44 c0
-42 34 -121 52 -121 11 0 10 156 -3 209 l-10 45 68 68 c73 74 141 113 213 123
l45 6 4 -33 c2 -18 4 -49 5 -68 1 -35 1 -35 -39 -34 -22 1 -68 5 -102 9 -62 8
-63 8 -63 -17 0 -29 -24 -53 -69 -69 l-33 -12 53 -46 c89 -79 127 -101 176
-101 56 0 53 17 -7 40 -24 9 -52 28 -63 41 l-19 24 33 3 c41 4 64 22 28 22
-24 0 -49 16 -49 31 0 17 53 69 63 62 6 -4 41 -13 77 -19 80 -16 84 -12 100
89 17 103 30 150 48 170 23 26 86 39 192 39 80 -1 125 -9 290 -50 246 -63 342
-75 534 -64 82 5 177 4 210 0 113 -15 183 -77 237 -208 75 -181 97 -208 227
-294 37 -25 104 -79 150 -120 90 -81 128 -107 182 -125 28 -9 40 -22 58 -60
25 -54 63 -85 92 -76 17 6 16 10 -17 53 -20 26 -45 66 -56 89 -21 44 -59 65
-113 66 -16 0 -31 10 -44 33 -22 34 -90 84 -178 128 -63 32 -126 87 -159 140
-14 21 -45 86 -69 143 -67 160 -112 212 -223 254 -50 19 -86 22 -341 29 l-285
8 -185 48 c-176 45 -192 47 -325 48 -159 1 -218 -13 -353 -85 -141 -75 -290
-213 -388 -360 l-51 -76 1 106 c0 58 -2 171 -4 251 -6 192 -8 186 224 554 119
189 137 212 203 267 66 54 162 98 358 163 117 39 224 83 345 144 223 112 281
127 480 126 160 -1 259 -19 525 -94 199 -56 291 -77 445 -99 74 -11 187 -34
250 -51 159 -42 324 -78 393 -85 44 -5 66 -14 90 -34 18 -16 42 -33 55 -40 19
-10 22 -9 22 7 0 28 20 43 42 31 14 -8 18 -21 18 -62 0 -49 3 -56 41 -92 91
-89 169 -240 168 -323 -1 -38 5 -62 26 -99 65 -110 77 -142 84 -215 9 -108 -3
-203 -36 -268 -26 -50 -32 -55 -73 -63 -77 -15 -82 -14 -107 22 -41 61 -57
135 -58 266 0 66 4 138 9 160 l9 40 9 -33 c5 -20 22 -41 43 -55 24 -15 35 -30
35 -46 0 -14 5 -62 12 -107 11 -75 14 -82 30 -73 24 13 48 61 48 97 0 15 -23
73 -52 128 -28 54 -57 115 -64 134 -7 19 -18 36 -26 36 -7 1 -18 2 -24 3 -6 0
-23 19 -38 41 -14 22 -33 40 -41 40 -8 0 -17 12 -20 28 -13 65 -39 141 -66
192 l-29 55 6 -40 c3 -22 20 -94 36 -160 31 -121 40 -236 21 -270 -8 -13 -14
-4 -33 47 -77 215 -90 241 -90 174 0 -53 -14 -44 -41 27 -18 48 -24 57 -27 38
-5 -32 34 -135 74 -196 33 -50 119 -141 161 -170 18 -13 22 -28 28 -120 4 -58
5 -108 2 -111 -11 -11 -97 57 -142 112 -84 104 -159 269 -180 394 -8 51 5 47
20 -8 15 -53 35 -53 24 0 -14 73 -28 110 -56 152 -25 39 -27 40 -32 18 -10
-38 -21 -30 -41 26 -88 249 -361 417 -725 447 l-80 7 77 -46 c91 -54 185 -138
227 -205 35 -54 39 -71 14 -66 -10 2 -61 14 -113 25 -60 14 -119 20 -161 19
l-67 -4 -54 51 c-61 58 -130 94 -191 100 -41 4 -40 3 38 -36 78 -39 105 -61
105 -87 0 -9 -16 -13 -55 -13 -30 0 -55 -4 -55 -9 0 -5 26 -17 58 -26 149 -41
228 -69 263 -91 47 -29 46 -29 53 -1 3 12 15 28 27 35 18 12 24 11 43 -5 11
-11 44 -34 71 -51 28 -17 64 -45 80 -62 35 -37 48 -38 63 -5 15 32 30 32 42 1
10 -28 47 -56 72 -56 16 0 15 5 -7 45 -39 74 -106 162 -211 280 -143 160 -137
150 -73 125 119 -45 202 -93 264 -152 44 -40 65 -55 65 -43 0 9 -5 25 -10 36
-25 46 45 4 114 -69 53 -55 109 -170 180 -369 35 -98 67 -186 71 -195 9 -23
-12 -24 -45 -1 -14 9 -64 53 -111 98 -79 76 -140 113 -170 103 -6 -2 84 -86
200 -186 383 -332 519 -484 680 -762 22 -37 57 -80 82 -99 43 -33 44 -33 47
-11 2 13 -6 32 -18 45 -22 23 -22 55 0 55 5 0 23 -12 40 -27 23 -21 36 -46 50
-103 20 -76 27 -145 8 -80 -12 44 -12 44 -36 31 -40 -21 -37 -58 13 -159 54
-109 63 -148 41 -177 -16 -20 -16 -19 -46 13 -17 18 -30 43 -30 57 0 30 -4 31
-46 4 -34 -21 -75 -23 -81 -3 -2 6 9 16 24 24 l28 13 -35 12 c-51 17 -46 41 8
37 56 -4 55 11 -3 121 -25 47 -45 92 -45 100 0 7 -16 25 -37 38 -23 15 -50 50
-75 94 -42 74 -90 129 -123 139 -19 5 -20 1 -21 -72 -3 -210 -94 -390 -236
-467 -71 -39 -169 -45 -253 -17 -33 11 -62 19 -64 17 -2 -3 3 -15 12 -29 22
-33 88 -55 175 -58 l73 -3 32 -85 c31 -81 78 -161 119 -202 14 -14 33 -18 92
-18 41 0 78 -5 81 -10 9 -14 -92 -118 -210 -215 -254 -209 -303 -303 -320
-620 -3 -66 -13 -174 -21 -239 -17 -135 -15 -139 61 -179 32 -18 57 -22 131
-22 84 0 95 3 165 37 40 20 100 59 131 85 64 54 148 154 167 199 7 18 37 47
74 73 34 23 89 64 122 92 57 48 141 96 151 87 8 -9 55 -173 80 -280 27 -120
114 -621 109 -627 -2 -2 -35 -4 -72 -5 -56 -1 -68 -4 -71 -18 -3 -15 4 -18 44
-18 92 0 171 -62 189 -147 6 -29 -1 -70 -20 -115 -6 -14 -2 -18 18 -18 30 0
41 13 58 68 11 39 10 46 -15 96 -15 29 -34 91 -42 137 -8 46 -21 104 -29 128
-10 33 -11 48 -2 62 9 14 7 22 -8 39 -16 17 -17 24 -5 44 11 21 10 27 -9 47
-26 29 -36 64 -55 202 -9 59 -20 117 -26 127 -12 23 -6 40 16 40 8 0 14 2 14
4 0 2 -18 41 -40 88 -42 90 -57 154 -41 178 8 12 12 12 29 -3 13 -12 22 -37
26 -80 4 -34 24 -118 46 -187 62 -200 100 -338 121 -434 25 -110 49 -276 49
-333 0 -39 2 -43 24 -43 21 0 56 -22 56 -36 0 -3 -14 -10 -31 -16 -25 -9 -29
-14 -24 -32 18 -57 18 -69 0 -83 -17 -11 -12 -13 41 -13 32 0 133 -9 224 -20
91 -11 184 -20 207 -20 38 0 43 3 49 28 16 76 53 139 113 196 16 16 28 33 25
38 -3 5 -40 6 -83 2 l-78 -6 -6 47 c-8 54 -21 75 -48 75 -27 0 -24 -19 17
-118 45 -109 48 -163 11 -199 l-26 -26 6 56 c4 39 2 61 -7 72 -21 25 -40 18
-40 -15 0 -16 -2 -30 -5 -30 -3 0 -30 14 -60 31 l-55 31 0 -55 c0 -31 -4 -58
-9 -61 -17 -11 -43 34 -50 89 -4 31 -14 63 -23 71 -13 13 -16 12 -28 -11 -8
-14 -29 -35 -48 -47 -19 -11 -40 -35 -48 -52 l-13 -31 -1 31 c0 19 12 46 32
73 29 40 33 56 50 190 33 265 85 483 155 649 20 48 36 101 36 119 0 21 -16 59
-48 110 -101 164 -115 218 -65 267 l20 20 0 -46 c0 -38 4 -49 25 -62 14 -9 34
-35 46 -59 33 -66 39 -70 60 -51 26 23 24 36 -12 70 -36 34 -52 69 -44 95 4
10 31 35 62 56 69 46 113 102 181 229 30 55 62 111 73 124 l19 25 21 -25 c60
-71 104 -219 97 -321 -4 -59 -4 -62 22 -71 l27 -9 6 -137 c4 -75 10 -193 13
-262 5 -93 2 -156 -11 -245 -9 -66 -17 -157 -17 -202 1 -79 17 -163 33 -163
11 0 30 95 36 185 l6 80 48 23 c54 26 63 42 47 78 -12 25 -19 26 -62 8 -16 -6
-18 -4 -11 12 27 64 44 124 45 159 0 22 3 50 6 62 6 22 8 22 70 -22 l64 -44
-21 42 c-12 23 -42 63 -67 89 -43 45 -45 49 -28 61 16 12 18 22 12 63 -18 117
-18 124 -7 124 6 0 56 -43 112 -96 55 -52 103 -93 106 -90 3 3 -2 25 -11 49
-20 54 -86 121 -163 166 -32 19 -71 42 -87 52 l-30 17 35 9 34 9 0 62 c0 81
11 91 70 62 31 -15 67 -48 111 -100 90 -107 163 -141 90 -41 -108 147 -268
236 -378 212 -23 -6 -44 -9 -45 -7 -1 1 10 17 25 35 27 32 28 32 75 22 35 -8
54 -8 68 0 30 15 16 24 -81 49 -104 28 -141 49 -166 95 l-19 36 30 57 c16 31
58 104 93 161 34 57 61 106 58 108 -2 3 -18 -3 -35 -12 -37 -19 -71 -63 -137
-180 -42 -76 -86 -126 -99 -114 -6 7 116 213 183 308 193 272 449 519 762 733
95 65 204 131 185 111 -5 -5 -55 -44 -110 -85 -252 -190 -392 -310 -523 -453
-78 -84 -196 -245 -187 -254 6 -6 53 27 100 70 23 21 58 46 78 54 58 24 127
18 127 -11 0 -23 38 -54 66 -54 14 0 72 18 127 41 95 38 185 55 203 37 3 -4
-6 -32 -20 -63 -73 -159 -196 -255 -392 -305 -61 -16 -108 -20 -204 -20 l-125
1 -62 -58 c-34 -32 -66 -70 -72 -85 -9 -24 -7 -29 11 -39 12 -7 46 -12 76 -13
43 0 58 4 71 20 18 23 46 20 162 -17 138 -45 223 -132 250 -258 16 -72 16
-268 0 -350 -16 -85 -66 -231 -103 -306 -28 -55 -145 -242 -255 -408 -79 -118
-143 -154 -219 -122 -57 24 -74 43 -74 84 0 58 -28 149 -59 195 -16 23 -61 69
-101 101 -49 41 -85 81 -113 128 -41 69 -77 104 -97 92 -17 -11 -11 -53 16
-106 l27 -50 -32 -79 c-58 -146 -112 -431 -98 -516 6 -38 32 -74 52 -74 7 0
15 51 23 156 15 180 34 300 65 399 35 113 33 39 -3 -121 -41 -180 -51 -343
-25 -397 10 -21 25 -42 35 -47 16 -8 18 3 24 132 11 236 49 448 80 448 25 0
81 -46 98 -80 9 -19 24 -78 33 -130 27 -159 60 -200 164 -208 78 -6 133 20
199 93 45 48 117 174 153 265 7 19 41 61 75 95 113 111 192 320 215 574 32
358 -72 493 -436 564 -63 12 -115 25 -115 29 0 16 75 28 205 33 237 8 341 49
475 184 47 47 111 125 142 172 51 78 61 87 95 94 21 4 103 32 183 62 267 101
421 143 532 143 l36 0 -14 -47 c-8 -27 -17 -89 -21 -140 -18 -274 100 -503
259 -503 52 0 152 34 223 75 54 32 152 151 190 231 40 85 62 213 80 459 8 120
18 222 23 226 11 12 275 164 390 226 l102 55 0 -30 c0 -37 -20 -55 -53 -47
-14 4 -33 3 -42 -3 -15 -8 -10 -16 34 -60 131 -131 300 -205 542 -237 45 -6
46 -5 98 50 68 72 95 133 88 196 -16 129 -131 247 -352 357 -138 69 -211 88
-421 112 -218 24 -262 38 -489 154 -139 71 -181 88 -230 93 -57 6 -61 9 -114
66 -119 128 -312 223 -521 257 -119 18 -293 12 -412 -14 -59 -14 -116 -30
-127 -36 -19 -10 -21 -8 -21 17 0 67 32 302 46 348 20 61 55 110 94 130 24 12
33 28 51 87 26 87 44 117 82 133 27 11 37 9 106 -26 145 -72 324 -109 431 -89
90 16 124 36 137 78 10 33 9 43 -12 90 -52 113 -129 178 -331 276 -77 37 -177
91 -223 118 -190 115 -279 115 -601 -1 -179 -65 -243 -78 -445 -91 -93 -6
-228 -15 -300 -21 -205 -16 -304 -57 -463 -192 l-83 -70 -32 30 c-44 42 -79
58 -193 88 -132 35 -185 60 -333 160 -189 126 -351 172 -636 181 -154 5 -163
4 -230 -21z m448 -50 c128 -33 248 -82 369 -151 54 -30 153 -76 220 -100 67
-25 153 -61 190 -81 66 -34 138 -101 138 -126 -1 -6 -16 -29 -34 -51 -29 -33
-36 -37 -54 -27 -19 10 -21 8 -27 -36 -21 -157 -64 -273 -130 -350 -28 -32
-44 -43 -66 -43 -40 0 -63 26 -89 104 -12 36 -28 69 -35 74 -11 6 -12 16 -4
47 6 26 5 79 -2 154 -7 63 -9 152 -6 199 l5 84 -58 58 c-78 78 -167 121 -266
129 -75 7 -91 1 -54 -19 11 -6 20 -20 20 -32 0 -16 4 -19 23 -14 73 21 77 20
109 -18 16 -20 56 -54 88 -76 33 -22 66 -50 74 -62 18 -25 20 -95 10 -246 l-7
-91 -39 32 c-85 68 -195 231 -213 315 -11 52 -30 33 -28 -27 1 -28 0 -51 -4
-51 -3 0 -72 49 -152 109 -228 170 -292 203 -428 222 -107 15 -114 3 -40 -66
31 -29 57 -57 57 -61 0 -4 -7 -16 -17 -26 -15 -17 -14 -18 16 -18 18 0 75 -5
126 -12 91 -11 94 -12 89 -34 -4 -16 1 -29 18 -43 71 -63 88 -81 88 -94 0 -24
-28 -28 -92 -11 -68 17 -84 11 -48 -18 21 -17 33 -19 91 -13 61 6 68 5 88 -16
19 -20 29 -22 107 -20 98 2 149 -11 165 -41 10 -18 9 -20 -7 -13 -11 4 -59 10
-108 12 l-88 6 12 -22 c16 -31 67 -59 120 -67 80 -12 74 -20 -34 -44 -58 -13
-106 -26 -106 -30 0 -16 58 -31 153 -41 130 -13 199 -28 194 -43 -2 -6 -34
-12 -81 -14 -54 -2 -76 -6 -73 -15 6 -19 47 -23 122 -14 86 10 131 3 146 -24
15 -28 8 -31 -42 -20 -24 6 -64 11 -88 11 -74 0 -35 -19 75 -38 74 -13 99 -21
99 -32 0 -12 -11 -14 -54 -12 -49 3 -53 2 -42 -12 7 -8 37 -20 67 -26 34 -7
54 -16 51 -23 -4 -13 -41 -14 -99 -2 -34 7 -38 6 -38 -14 0 -20 -5 -21 -102
-21 -122 0 -218 13 -293 38 -30 11 -55 16 -55 11 0 -13 92 -69 134 -82 28 -8
103 -11 234 -9 123 1 192 -2 192 -8 0 -5 -23 -10 -51 -10 -58 0 -63 -18 -11
-36 43 -14 30 -24 -32 -24 -59 0 -52 -17 9 -22 27 -2 40 -8 40 -18 0 -8 -7
-14 -16 -12 -37 6 -66 -17 -92 -71 -14 -30 -31 -58 -38 -63 -25 -15 -79 -3
-143 31 -36 20 -73 35 -83 33 -15 -3 -12 -10 18 -40 25 -26 54 -42 97 -55 34
-10 62 -21 62 -24 0 -4 -16 -48 -35 -98 -19 -49 -35 -101 -36 -113 0 -13 -4
-32 -9 -43 -7 -17 -11 -14 -29 28 -11 26 -26 47 -33 47 -6 0 1 13 16 29 17 17
30 44 33 67 6 48 -10 65 -93 98 l-59 22 0 52 c1 29 -2 52 -6 52 -18 0 -75 71
-126 158 -62 105 -112 166 -154 187 -21 11 -29 24 -34 57 -69 434 -402 678
-926 678 l-82 0 24 26 c35 39 153 90 276 121 135 33 294 37 419 9 l82 -18 63
31 c35 17 84 36 109 41 74 15 244 4 353 -25z m2727 -12 c69 -19 146 -56 346
-169 l158 -89 -79 -7 c-178 -16 -323 -59 -420 -124 -69 -45 -93 -76 -102 -127
-3 -21 -39 -106 -80 -188 -74 -149 -103 -224 -103 -266 0 -32 -17 -28 -35 7
-16 32 -29 37 -41 18 -4 -7 5 -22 24 -38 32 -26 32 -27 22 -81 -5 -30 -17
-125 -25 -212 -21 -216 -34 -276 -73 -353 -35 -69 -68 -101 -110 -108 -21 -3
-72 -22 -113 -43 -61 -30 -99 -61 -224 -184 l-151 -148 1 -84 c0 -75 -3 -90
-32 -145 -17 -34 -27 -62 -22 -62 16 0 48 38 74 90 14 28 34 59 45 70 10 10
23 44 29 75 29 158 157 275 456 419 190 91 273 108 396 77 72 -17 92 -12 154
42 40 35 60 45 100 50 28 3 131 25 230 48 162 38 194 42 320 44 77 1 148 5
157 9 11 5 52 -6 115 -32 54 -22 160 -61 237 -88 l138 -47 -28 -16 c-22 -12
-80 -17 -249 -22 -203 -6 -226 -9 -300 -34 -56 -19 -115 -30 -199 -36 -142
-11 -161 -17 -382 -119 -94 -43 -202 -88 -240 -98 -52 -15 -98 -39 -180 -95
-60 -41 -161 -102 -225 -136 -100 -53 -129 -74 -220 -164 -122 -121 -369 -329
-384 -324 -32 11 -47 140 -26 230 8 35 7 37 -15 37 -34 0 -51 -34 -58 -114 -7
-83 -22 -103 -111 -146 -162 -80 -387 -45 -495 77 -22 25 -45 64 -52 85 -13
44 -64 78 -118 78 -16 0 -30 4 -30 8 0 5 20 32 45 61 25 29 45 56 45 61 0 18
-46 19 -70 1 -53 -39 -126 -392 -131 -638 -1 -46 -6 -83 -10 -83 -17 0 -41 64
-46 119 -6 62 19 214 67 408 16 66 32 143 36 171 6 51 6 52 -18 52 -32 0 -45
-15 -53 -65 -11 -67 -15 -73 -45 -80 -16 -4 -52 -25 -80 -47 -62 -49 -113 -58
-188 -34 -163 54 -234 276 -157 483 22 57 23 69 13 121 -27 147 10 344 92 483
36 60 149 179 170 179 5 0 25 33 43 73 36 76 98 153 166 202 36 26 40 34 35
59 -5 25 1 35 51 81 51 47 62 67 115 190 99 230 142 280 313 364 213 105 442
154 702 149 l160 -3 197 68 c263 90 329 99 468 60z m-3110 -96 c0 -23 33 -46
95 -67 61 -21 85 -36 85 -53 0 -18 -74 0 -129 32 -29 18 -67 35 -82 38 -22 4
-29 11 -29 28 0 12 3 25 7 28 12 12 53 7 53 -6z m-806 -107 c31 -11 34 -26 7
-35 -19 -6 -71 12 -71 25 0 21 25 25 64 10z m-134 -17 c3 -3 -1 -8 -7 -10 -24
-9 -13 -23 17 -23 34 0 34 0 18 -35 -8 -19 -8 -29 0 -37 8 -8 19 -2 43 21 87
87 227 111 300 52 l24 -19 -50 -7 c-66 -10 -126 -42 -200 -105 -61 -52 -92
-72 -132 -84 -19 -6 -23 -4 -23 16 0 13 -7 34 -16 47 -16 23 -20 23 -103 17
-58 -5 -83 -4 -76 3 11 11 119 41 148 41 11 0 17 5 14 13 -3 8 -24 11 -72 9
-52 -3 -66 0 -63 10 4 9 23 12 67 11 66 -2 82 12 26 23 -48 9 -45 42 5 63 24
10 69 6 80 -6z m1286 -117 c27 -19 68 -47 91 -63 49 -33 55 -46 16 -37 -43 10
-104 48 -148 93 -49 51 -27 55 41 7z m3324 -1 c30 -16 80 -74 80 -93 0 -24
-30 -11 -91 38 -34 28 -66 50 -71 50 -5 0 -6 5 -3 10 9 15 52 12 85 -5z m-152
-14 c55 -28 152 -140 152 -176 0 -9 -45 -5 -105 10 -87 22 -326 118 -322 129
2 6 18 14 35 18 18 5 32 14 32 21 0 7 7 4 15 -7 14 -19 18 -18 65 9 35 20 84
19 128 -4z m-4588 -129 c0 -5 -11 -14 -25 -20 -30 -14 -32 -32 -5 -55 24 -21
48 -12 74 28 15 23 54 34 69 19 14 -15 -122 -103 -160 -104 -12 0 -63 94 -63
116 0 12 25 18 88 22 12 1 22 -2 22 -6z m1710 -101 c14 -27 13 -31 -11 -31
-31 0 -59 18 -53 35 9 22 51 18 64 -4z m64 -86 c11 -19 16 -38 13 -42 -4 -3
-29 5 -55 18 -47 24 -48 24 -27 41 30 26 49 22 69 -17z m2839 -515 c47 -16 84
-37 118 -68 27 -24 49 -47 49 -51 0 -5 -37 -11 -82 -14 -58 -4 -133 -21 -248
-56 -196 -60 -205 -61 -195 -23 15 64 88 138 172 174 28 12 28 13 -19 16 -29
2 -59 -3 -78 -13 -40 -21 -91 -92 -131 -182 -24 -54 -37 -73 -51 -73 -10 0
-58 -16 -105 -36 -132 -54 -135 -48 -48 81 41 61 86 125 101 143 l27 32 -23 0
c-40 0 -84 -45 -140 -144 -59 -104 -105 -167 -96 -131 6 26 43 220 51 266 l5
36 93 23 c160 39 245 49 392 46 114 -3 153 -7 208 -26z m331 -190 c63 -35 67
-39 48 -49 -11 -6 -53 -11 -92 -11 -94 0 -179 -18 -465 -100 -262 -75 -335
-93 -343 -85 -7 7 246 126 353 165 236 87 371 129 400 123 17 -3 61 -22 99
-43z m-877 -185 c-44 -30 -122 -65 -145 -65 -25 0 17 27 96 60 84 36 97 37 49
5z m1350 -159 c-14 -37 78 -69 183 -64 54 2 65 6 62 19 -3 19 15 25 100 35
120 14 324 -37 487 -121 89 -46 148 -85 106 -69 -11 4 -61 9 -111 12 -166 8
-262 -31 -614 -252 -331 -208 -512 -284 -720 -301 -74 -7 -89 -12 -118 -36
-50 -45 -97 -59 -229 -74 -67 -8 -139 -17 -160 -21 -52 -9 -164 -54 -281 -113
-54 -27 -124 -57 -155 -66 -55 -16 -58 -16 -117 6 -76 28 -131 23 -229 -21
-41 -18 -92 -35 -114 -38 l-39 -5 4 34 3 34 -64 0 c-35 0 -66 5 -68 10 -2 6
36 24 84 39 49 16 104 37 123 47 l35 18 -53 1 c-39 0 -54 4 -59 16 -8 21 8 30
92 50 57 14 146 19 495 24 390 6 432 9 503 28 83 23 189 74 166 80 -43 11 -44
13 -29 22 8 6 36 10 61 10 25 0 54 7 65 15 17 13 8 14 -88 15 -107 0 -108 0
-152 -34 -87 -66 -216 -93 -498 -102 -171 -6 -200 -5 -215 8 -10 9 -29 19 -41
23 -17 5 -22 12 -19 26 5 17 -1 19 -49 19 -30 0 -54 4 -54 9 0 13 22 18 105
26 86 9 148 31 124 46 -11 5 -37 5 -69 -1 -65 -12 -120 -13 -120 -1 0 12 82
46 160 66 84 22 249 24 493 6 181 -14 194 -14 335 7 81 12 226 26 322 31 101
6 198 17 230 27 58 17 140 59 140 73 0 9 -156 25 -245 25 -33 0 -71 -6 -85
-14 -24 -13 -21 -14 56 -25 44 -7 89 -17 100 -24 20 -13 10 -12 -203 6 -49 4
-73 2 -73 -5 0 -6 5 -14 10 -17 6 -3 10 -13 10 -22 0 -14 -30 -15 -302 -10
-275 6 -539 25 -554 40 -8 8 22 22 129 61 101 36 157 63 157 73 0 15 -138 -9
-232 -41 -117 -39 -170 -50 -199 -41 -19 6 -17 9 17 31 46 28 55 29 48 9 -10
-25 20 -18 98 25 155 83 371 106 733 76 296 -25 469 -30 565 -18 100 13 229
50 211 61 -9 6 -5 13 13 25 45 29 30 36 -76 36 -98 0 -105 -2 -147 -30 -25
-17 -70 -38 -100 -48 -78 -23 -270 -21 -491 7 -96 11 -213 25 -260 29 l-85 8
72 18 c55 14 89 16 143 11 48 -5 80 -3 100 5 32 13 52 45 22 36 -70 -20 -139
-27 -167 -16 -30 12 -30 12 33 26 34 7 102 27 150 45 144 53 204 69 265 69
110 0 53 -39 -93 -64 -52 -9 -106 -25 -120 -34 l-25 -17 47 -3 c28 -2 94 8
160 25 145 35 215 34 388 -7 74 -18 179 -37 232 -43 85 -9 100 -8 122 7 14 9
26 20 26 24 0 4 -55 8 -123 8 -138 2 -220 20 -377 81 l-94 38 39 12 c57 17 98
16 92 -1z m191 -13 c2 -8 -5 -13 -16 -13 -30 0 -53 11 -46 22 8 13 57 6 62 -9z
m738 -229 c44 -9 86 -20 94 -25 25 -14 -68 -10 -135 6 -33 8 -75 15 -93 15
-20 0 -31 4 -27 10 9 15 72 12 161 -6z m-171 -48 c14 -9 31 -29 39 -45 14 -26
18 -28 65 -23 57 5 121 -4 121 -18 0 -6 -25 -10 -56 -10 l-56 0 24 -29 c16
-20 27 -26 35 -19 8 6 39 8 75 4 47 -4 68 -2 82 9 27 20 13 42 -34 55 -24 6
-40 16 -37 23 7 21 49 19 98 -5 43 -20 48 -27 49 -55 0 -18 -10 -58 -22 -88
-20 -47 -26 -55 -43 -49 -11 3 -35 8 -52 11 -27 4 -33 2 -33 -12 0 -14 6 -16
35 -11 43 8 46 -7 8 -31 -16 -9 -35 -25 -43 -35 -13 -16 -21 -17 -42 -9 -14 5
-55 15 -90 21 -76 14 -106 32 -120 71 -12 34 -23 37 -39 8 -9 -18 -13 -19 -25
-7 -11 10 -12 22 -4 48 16 56 13 80 -10 80 -17 0 -20 -7 -20 -45 0 -52 -12
-58 -30 -15 -9 22 -10 44 -1 93 6 35 11 78 11 95 l0 31 45 -14 c25 -7 57 -21
70 -29z m-149 -58 c-14 -89 -24 -108 -41 -85 -9 13 -10 30 -2 69 8 41 8 53 -3
56 -9 3 -5 9 11 18 44 24 47 20 35 -58z m-4490 -154 c-4 -11 1 -18 14 -21 24
-6 25 -19 6 -64 l-15 -34 -15 37 c-22 51 -19 98 6 98 6 0 7 -7 4 -16z m3887
-249 c-1 -53 -11 -101 -41 -195 -22 -69 -43 -150 -47 -180 -17 -146 -31 -179
-82 -194 -20 -6 -23 -4 -23 21 0 15 -11 58 -24 96 -18 51 -25 62 -29 47 -3
-12 2 -47 11 -78 9 -31 16 -84 17 -117 l0 -60 -54 -32 c-79 -47 -251 -92 -251
-65 0 5 -25 47 -55 93 -40 60 -55 92 -53 112 2 20 -5 33 -27 51 l-29 23 19
101 c13 72 22 99 31 95 8 -3 11 -16 7 -39 -7 -41 8 -44 43 -9 34 34 28 56 -24
82 l-44 22 0 76 c0 74 1 78 29 95 21 12 35 15 46 8 9 -5 56 -8 104 -6 82 3 88
2 88 -17 0 -17 -8 -20 -60 -23 -42 -2 -64 -8 -72 -19 -16 -20 -17 -87 -3 -114
11 -20 45 -26 55 -9 3 6 -1 10 -9 10 -9 0 -16 5 -16 10 0 6 16 10 35 10 25 0
44 8 60 25 l25 24 0 -29 c0 -55 -22 -131 -46 -159 -28 -34 -29 -46 -9 -94 24
-58 20 -74 -22 -87 -64 -21 -101 -70 -53 -70 11 0 20 -7 20 -15 0 -8 -9 -19
-20 -25 -24 -13 -25 -23 -5 -44 21 -20 38 -12 69 32 32 47 56 123 56 181 0 25
6 52 13 60 45 52 72 249 49 349 -12 52 -1 55 45 10 33 -31 51 -33 39 -3 -3 8
-18 20 -33 26 l-28 11 24 19 c32 26 44 24 85 -12 47 -41 60 -31 52 38 l-6 54
44 18 c24 11 47 25 51 32 6 8 15 -1 28 -27 16 -29 21 -57 20 -109z m-3303 -25
c0 -33 -2 -35 -32 -19 -19 10 -19 11 -1 29 26 27 33 24 33 -10z m-754 -65 c0
-26 -3 -35 -14 -33 -37 7 -41 68 -5 68 14 0 18 -8 19 -35z m963 22 c40 -17 30
-27 -27 -27 -38 0 -43 -2 -32 -15 6 -7 33 -17 58 -20 26 -4 56 -9 66 -12 20
-5 20 -6 0 -20 -29 -22 -100 -11 -132 20 -23 23 -24 28 -12 56 14 34 31 38 79
18z m-248 -22 c0 -5 -7 -12 -16 -13 -23 -5 -47 6 -40 19 8 13 56 8 56 -6z
m-47 -38 c55 -26 59 -29 43 -44 -14 -14 -22 -15 -56 -4 -22 6 -49 24 -61 38
-20 26 -23 27 -48 12 -19 -10 -30 -28 -37 -57 -10 -41 -12 -42 -27 -25 -9 10
-19 40 -23 67 l-8 48 79 -4 c59 -3 94 -10 138 -31z m-564 -7 c0 -13 -7 -20
-20 -20 -13 0 -20 7 -20 20 0 13 7 20 20 20 13 0 20 -7 20 -20z m60 -60 c27
-27 18 -40 -26 -40 -26 0 -34 4 -34 18 0 19 18 42 32 42 4 0 17 -9 28 -20z
m799 0 c41 -12 128 -39 195 -61 184 -61 377 -104 384 -86 6 18 0 26 -20 29
-15 3 -5 7 27 12 57 10 75 21 75 47 0 22 11 24 28 7 24 -24 13 -67 -26 -110
l-38 -41 -80 18 c-43 9 -109 19 -146 22 -83 6 -86 1 -98 -145 -9 -115 -16
-145 -34 -139 -32 11 -43 136 -22 255 13 78 13 78 -39 72 -28 -3 -43 -17 -67
-63 l-20 -39 -94 4 c-81 3 -98 7 -116 26 -36 35 -12 47 55 28 61 -18 105 -20
126 -7 27 18 -1 29 -84 33 -62 3 -90 9 -102 21 -26 26 -4 41 49 33 23 -3 81
-8 128 -11 84 -6 85 -6 63 13 -16 14 -43 21 -103 25 -87 6 -130 24 -130 57 0
25 -1 25 89 0z m-268 -43 c4 -5 0 -21 -7 -36 -11 -19 -13 -44 -8 -88 5 -54 4
-63 -10 -63 -33 0 -47 42 -44 138 l3 90 30 -15 c17 -9 33 -20 36 -26z m1079
-47 c0 -9 -16 -32 -36 -51 l-35 -34 8 30 c4 17 8 54 8 83 l0 54 28 -33 c15
-18 27 -40 27 -49z m-1767 43 c12 -12 -15 -33 -43 -33 -19 0 -29 6 -33 20 -4
17 0 20 32 20 21 0 41 -3 44 -7z m492 -127 c16 -54 19 -86 8 -86 -15 1 -63
117 -63 151 l0 34 20 -25 c11 -14 27 -47 35 -74z m-458 41 c11 -11 -38 -27
-64 -21 -28 7 -63 31 -63 44 0 7 118 -15 127 -23z m176 -1 c5 -15 6 -30 2 -34
-9 -10 -35 28 -35 51 0 27 22 16 33 -17z m-63 -120 c23 -68 24 -76 10 -76 -5
0 -15 19 -21 43 -7 23 -18 48 -25 56 -11 12 -16 7 -34 -34 -20 -47 -21 -47
-58 -42 -34 6 -35 5 -18 -8 11 -8 41 -18 68 -21 58 -8 78 -31 78 -87 0 -40
-46 -143 -76 -168 -29 -24 -169 -19 -220 8 -58 31 -109 95 -133 166 -49 145
-26 162 172 128 26 -4 47 -4 47 0 0 5 -17 11 -37 15 -51 9 -73 21 -73 40 0 17
-2 17 109 -2 39 -6 43 -5 39 12 -2 14 -13 20 -41 22 -35 3 -59 24 -44 38 3 3
39 0 80 -7 83 -14 107 -6 107 35 1 31 45 -43 70 -118z m1226 17 c4 -21 22 -80
40 -131 21 -58 34 -111 34 -142 0 -46 -2 -50 -23 -50 -13 0 -32 9 -43 21 -10
12 -31 27 -46 35 l-28 15 0 144 0 145 30 0 c26 0 30 -4 36 -37z m-446 1 c99
-14 82 -39 -32 -46 l-68 -4 0 34 c0 31 2 33 28 28 15 -3 47 -8 72 -12z m208
-81 l3 -90 -121 -8 c-125 -7 -172 1 -184 31 -14 38 15 54 100 54 56 0 126 37
160 84 11 14 24 24 29 22 6 -1 11 -43 13 -93z m512 88 c0 -6 -49 -70 -99 -128
-34 -41 -47 -50 -58 -42 -16 14 -43 102 -43 143 l0 31 100 0 c55 0 100 -1 100
-4z m-992 -67 c21 -15 29 -44 15 -57 -3 -4 -17 2 -29 14 -23 22 -44 19 -44 -7
0 -20 -20 -17 -47 8 -32 30 -29 39 14 36 22 -1 38 3 41 10 5 16 23 15 50 -4z
m-322 -37 c9 -21 6 -26 -27 -50 -48 -34 -54 -34 -65 5 -9 30 -7 34 21 50 41
23 58 22 71 -5z m379 -69 c51 -10 59 -15 71 -45 16 -38 19 -39 90 -16 30 9 57
13 61 9 13 -13 -37 -47 -152 -102 -128 -61 -208 -84 -296 -84 -67 0 -189 18
-189 28 0 4 28 33 62 65 61 59 62 59 112 55 29 -2 83 -19 122 -37 47 -22 82
-31 105 -29 l34 3 -48 28 c-103 63 -217 89 -294 68 -25 -7 -75 -38 -123 -76
-78 -62 -115 -82 -140 -73 -18 6 68 97 125 133 49 32 146 71 195 78 56 9 210
6 265 -5z m345 -73 c7 -9 21 -13 31 -10 16 5 19 1 19 -22 0 -37 15 -51 46 -45
l25 5 -22 23 -22 24 31 0 c44 0 121 -27 160 -57 65 -49 79 -115 36 -179 -32
-47 -30 -45 -187 -150 -125 -83 -187 -144 -187 -185 0 -11 -12 -22 -34 -29
-19 -6 -60 -34 -92 -62 -77 -67 -106 -78 -207 -78 -124 0 -260 -47 -402 -137
-94 -60 -112 -79 -216 -214 -138 -180 -306 -299 -423 -299 -49 0 -124 28 -144
53 -6 8 -3 78 9 192 47 463 95 586 279 717 55 39 142 117 207 184 l112 117
103 -7 c205 -13 268 -41 268 -117 0 -28 -4 -39 -15 -39 -8 0 -15 9 -15 20 0
11 -2 20 -4 20 -17 0 -65 -25 -97 -51 -38 -30 -39 -30 -101 -19 -105 19 -234
-9 -303 -65 -49 -40 -8 -40 96 0 86 33 179 49 195 33 12 -13 -33 -77 -106
-150 -43 -43 -87 -89 -98 -103 -17 -22 -24 -24 -41 -16 -49 27 -119 6 -165
-50 -43 -50 -18 -56 62 -14 104 55 114 45 42 -43 -162 -199 -330 -446 -313
-463 5 -5 23 5 43 26 32 33 35 34 52 18 25 -23 34 -9 20 30 -28 78 8 94 43 20
11 -24 22 -43 25 -43 3 0 21 36 39 81 18 44 43 92 56 107 19 22 21 31 13 60
-16 59 7 122 45 122 14 0 14 -34 1 -82 -18 -70 -18 -79 4 -71 32 11 52 36 52
65 0 15 5 28 10 28 11 0 13 -14 11 -85 l-2 -50 19 22 c13 14 24 52 32 105 14
95 33 148 53 148 8 0 26 -10 41 -21 15 -12 30 -18 34 -14 4 4 9 44 10 90 3 64
8 85 20 90 27 10 33 -10 17 -61 -19 -63 -19 -93 0 -101 25 -9 28 1 26 82 -1
46 2 75 9 75 6 0 10 -39 10 -106 0 -115 8 -127 43 -61 12 24 23 76 30 147 l10
111 31 -7 c17 -4 34 -11 37 -16 8 -13 77 66 85 97 3 13 4 43 2 65 -2 22 -1 40
2 39 3 0 16 -14 30 -31 31 -40 59 -122 60 -175 0 -47 13 -54 39 -22 16 21 16
25 -6 101 -38 134 -25 208 46 255 33 22 33 22 70 4 72 -37 111 -109 118 -223
5 -63 8 -76 19 -67 37 30 39 95 7 227 -4 19 -1 22 25 22 21 0 36 8 46 22 25
36 19 40 -45 33 -55 -6 -63 -5 -85 16 l-24 23 22 23 c12 13 37 27 56 33 102
28 184 -61 211 -228 l8 -47 18 40 c21 48 16 134 -10 186 -24 47 -65 89 -87 89
-10 0 -18 6 -18 13 0 30 30 36 50 12z m-670 -350 c6 -8 9 -23 5 -34 -9 -29
-55 -62 -76 -56 -14 5 -23 -3 -36 -32 -21 -44 -63 -60 -63 -23 0 39 30 79 88
119 65 46 66 46 82 26z m904 -87 c-31 -60 -65 -96 -105 -112 -57 -23 -74 -11
-51 34 12 25 36 45 87 72 39 21 73 38 78 38 4 0 0 -15 -9 -32z m402 -57 c17
-10 40 -21 50 -23 16 -3 13 -7 -13 -21 -18 -10 -33 -22 -33 -28 0 -20 -32 14
-47 48 -7 18 -13 35 -13 38 0 11 26 4 56 -14z m-1536 -125 c0 -30 -4 -58 -10
-61 -6 -4 -10 17 -10 54 0 34 4 61 10 61 6 0 10 -24 10 -54z m-120 -59 c0 -31
-24 -64 -35 -48 -4 7 -2 18 4 24 6 6 11 19 11 29 0 10 5 18 10 18 6 0 10 -10
10 -23z m909 -46 c6 -11 8 -54 4 -106 -6 -82 -5 -87 13 -83 14 2 20 14 24 43
l5 39 27 -32 c59 -71 60 -118 3 -313 -19 -66 -35 -135 -35 -152 0 -18 -5 -39
-10 -47 -7 -11 -10 -8 -10 16 0 17 -14 96 -31 175 -36 167 -48 334 -30 422 13
59 23 70 40 38z m-140 -123 c23 -48 35 -110 86 -433 24 -150 26 -187 21 -315
-8 -173 -17 -236 -39 -258 -9 -8 -18 -14 -21 -11 -2 2 -11 114 -20 249 -21
308 -41 499 -72 667 -29 161 -29 155 -1 151 15 -2 29 -18 46 -50z m-128 -2
c33 -54 48 -126 63 -303 8 -95 18 -179 22 -185 5 -9 4 -10 -4 -3 -7 6 -35 103
-63 215 -38 151 -57 212 -75 233 -13 16 -24 39 -24 52 0 45 52 39 81 -9z
m-851 -138 c0 -20 -4 -26 -14 -22 -21 8 -27 33 -15 56 9 17 13 18 20 7 5 -8 9
-26 9 -41z m1925 -116 c-8 -8 -35 20 -35 37 1 12 5 11 21 -8 11 -13 17 -26 14
-29z"/>
<path d="M3495 12651 c-9 -16 22 -81 39 -81 9 0 16 5 16 10 0 6 -4 10 -9 10
-5 0 -12 13 -16 30 -7 32 -20 46 -30 31z"/>
<path d="M3595 12650 c-4 -6 15 -10 49 -10 30 0 58 5 61 10 4 6 -15 10 -49 10
-30 0 -58 -4 -61 -10z"/>
<path d="M4157 12443 c-16 -15 -5 -33 29 -49 44 -21 83 -72 91 -118 7 -46 17
-52 42 -27 l21 21 -7 -59 c-5 -55 -4 -61 20 -85 43 -43 64 -35 77 28 6 30 10
76 8 103 -3 47 -4 48 -68 89 -36 22 -79 55 -97 72 -24 25 -40 32 -70 32 -22 0
-43 -3 -46 -7z"/>
<path d="M3416 12015 c-31 -31 -14 -85 26 -85 14 0 18 8 18 39 0 48 -21 69
-44 46z"/>
<path d="M6053 12634 c-22 -23 -25 -32 -21 -80 3 -35 1 -54 -6 -54 -6 0 -73
-30 -149 -66 -76 -37 -139 -65 -141 -63 -9 9 16 107 39 154 13 27 22 51 19 54
-8 8 -58 -34 -82 -69 -12 -19 -29 -59 -38 -89 -43 -160 -56 -191 -85 -208 -16
-10 -29 -21 -29 -26 0 -5 -9 -6 -20 -2 -19 6 -69 -21 -70 -37 0 -4 14 -15 32
-24 64 -33 138 -10 304 92 39 24 74 44 78 44 17 0 106 43 106 51 0 17 -71 9
-141 -16 -66 -23 -129 -25 -129 -5 0 9 378 183 505 233 103 40 249 87 271 87
7 0 14 5 14 10 0 6 -28 10 -65 10 -49 0 -97 -10 -188 -39 -67 -21 -135 -42
-151 -45 -27 -7 -28 -6 -22 21 25 97 17 114 -31 67z"/>
<path d="M5410 12519 c-7 -11 -9 -23 -6 -26 10 -11 51 7 64 27 11 18 10 20
-18 20 -19 0 -33 -7 -40 -21z"/>
<path d="M5351 12413 c-10 -45 -21 -147 -36 -327 -6 -63 -4 -77 7 -74 20 7 55
76 73 143 29 112 14 305 -23 305 -6 0 -15 -21 -21 -47z"/>
<path d="M5051 12433 c-25 -49 -34 -135 -28 -285 17 -415 17 -417 61 -385 16
12 18 27 17 96 -1 59 2 90 13 106 13 20 12 27 -11 76 -43 89 -42 233 3 387 5
19 3 22 -19 22 -15 0 -30 -8 -36 -17z"/>
<path d="M5974 12393 c-17 -17 -16 -18 30 -21 57 -4 76 2 76 23 0 22 -83 21
-106 -2z"/>
<path d="M6184 12194 c6 -22 1 -32 -31 -59 -34 -30 -36 -34 -19 -41 26 -10 65
13 93 55 29 42 29 45 -2 59 -39 18 -48 15 -41 -14z"/>
<path d="M4730 12150 c0 -25 4 -31 18 -28 11 2 17 12 17 28 0 16 -6 26 -17 28
-14 3 -18 -3 -18 -28z"/>
<path d="M5932 12163 c-123 -25 -315 -97 -474 -177 -136 -68 -164 -86 -181
-116 -11 -19 -44 -62 -74 -94 -56 -60 -83 -108 -83 -146 0 -13 -12 -25 -37
-35 -37 -15 -163 -135 -163 -154 0 -5 9 -13 20 -16 11 -3 20 -13 20 -21 0 -11
-9 -13 -40 -8 -46 8 -54 -10 -20 -41 27 -24 25 -35 -5 -35 -17 0 -43 -18 -80
-55 -30 -31 -55 -58 -55 -61 0 -3 -45 -104 -100 -225 -55 -121 -113 -263 -129
-317 -32 -103 -56 -221 -47 -229 12 -13 58 31 81 77 20 40 32 52 55 57 36 7
39 29 5 45 -46 21 -42 62 13 120 13 15 70 46 126 70 90 39 98 43 68 46 -22 2
-54 -7 -94 -27 -46 -22 -66 -27 -80 -20 -10 5 -18 15 -18 22 0 12 130 92 235
145 194 96 530 194 659 191 30 0 30 -1 7 -10 -14 -5 -63 -19 -109 -31 -83 -21
-131 -49 -153 -90 -16 -30 0 -38 51 -27 51 11 104 4 79 -12 -7 -5 -25 -9 -39
-9 -28 0 -116 -38 -108 -46 7 -7 231 44 283 64 61 24 121 68 145 107 26 41 21
62 -15 70 -14 3 -36 7 -50 10 -37 8 -31 19 23 43 27 12 103 71 173 133 68 61
136 117 152 125 37 20 34 24 -13 24 -36 0 -46 -6 -83 -47 -168 -189 -266 -234
-747 -348 -85 -20 -187 -52 -227 -70 -40 -19 -73 -31 -73 -27 1 17 39 52 80
72 49 24 86 55 101 82 9 16 5 18 -37 15 -28 -1 -48 3 -51 9 -4 12 23 25 107
48 55 15 100 40 100 55 0 15 -96 -8 -162 -39 -109 -51 -101 -29 17 49 190 125
403 221 546 245 31 5 37 3 42 -13 4 -16 -3 -21 -38 -30 -24 -6 -51 -19 -61
-28 -17 -17 -17 -18 4 -21 11 -2 37 1 56 7 58 15 51 -6 -9 -28 -63 -24 -95
-42 -95 -55 0 -13 65 2 147 35 77 30 93 34 93 22 0 -17 -75 -54 -147 -74 -99
-26 -163 -50 -163 -59 0 -8 25 -6 128 6 55 7 189 74 227 114 27 29 28 32 13
41 -27 15 -22 26 20 53 37 23 72 79 59 93 -4 3 -18 -2 -31 -11 -14 -9 -30 -16
-36 -16 -25 0 -5 23 64 75 92 70 100 84 41 77 -24 -2 -52 -1 -62 3 -15 5 -11
10 20 22 20 8 37 18 37 22 0 4 -35 3 -77 -2 -80 -9 -123 -27 -123 -51 0 -11 8
-12 40 -4 30 8 44 7 55 -2 26 -22 16 -30 -38 -30 -49 0 -77 -12 -77 -32 0 -4
11 -8 25 -8 14 0 25 -4 25 -10 0 -6 -6 -9 -12 -7 -8 1 -14 -10 -16 -28 -5 -56
-10 -60 -37 -35 -36 34 -119 24 -273 -34 -68 -25 -141 -50 -161 -55 -35 -8
-40 -6 -55 19 l-16 28 35 6 c41 8 75 47 75 88 0 22 6 31 28 39 15 6 90 39 167
74 144 65 230 95 274 95 19 0 22 -3 13 -12 -21 -21 -13 -30 21 -23 87 19 157
68 157 112 0 22 -3 23 -37 17 -21 -4 -103 -29 -183 -56 -89 -30 -171 -51 -213
-55 l-69 -6 60 79 c80 106 128 130 353 174 57 11 112 22 122 24 11 3 17 -2 17
-15 0 -14 -7 -19 -25 -19 -32 0 -95 -31 -77 -38 25 -8 82 9 112 35 30 25 74
97 68 112 -2 4 -31 1 -66 -6z m-1072 -987 c0 -8 -12 -21 -27 -29 -16 -7 -27
-19 -25 -25 1 -7 -2 -12 -8 -12 -16 0 -12 47 6 64 19 20 54 21 54 2z m750 -45
c0 -9 -24 -21 -42 -21 -6 0 -6 6 2 15 14 16 40 20 40 6z m-90 -25 c0 -2 -11
-11 -24 -19 -23 -15 -24 -15 -19 3 4 16 43 30 43 16z"/>
<path d="M4533 11998 c-22 -35 -45 -77 -52 -94 -14 -35 -11 -109 4 -109 6 0
21 23 35 50 14 28 34 54 46 59 16 7 21 19 22 50 1 23 3 54 5 70 4 50 -19 40
-60 -26z"/>
<path d="M6028 12033 c-10 -2 -18 -12 -18 -21 0 -12 3 -13 12 -4 16 16 40 15
64 -2 19 -14 18 -15 -7 -43 -14 -15 -33 -41 -43 -57 l-18 -29 23 7 c13 5 35
10 49 13 23 4 25 9 25 56 0 29 4 60 9 70 7 15 3 17 -35 16 -24 -1 -52 -3 -61
-6z"/>
<path d="M4650 12020 c-1 -41 23 -186 40 -251 11 -41 27 -112 35 -159 14 -84
38 -132 67 -138 13 -3 16 12 14 96 -1 104 8 132 45 132 23 0 28 9 22 43 -4 22
-11 27 -33 27 -16 0 -42 -11 -59 -26 -22 -19 -32 -22 -35 -12 -2 7 -21 72 -42
143 -38 134 -53 174 -54 145z"/>
<path d="M5778 11989 c-10 -5 -18 -15 -18 -20 0 -14 61 -1 80 17 12 12 10 14
-15 14 -17 0 -38 -5 -47 -11z"/>
<path d="M4968 11897 c-45 -17 -32 -48 25 -62 26 -7 27 -6 27 34 0 44 -5 47
-52 28z"/>
<path d="M6012 11820 c-10 -16 -10 -20 2 -20 25 0 46 12 46 26 0 21 -33 17
-48 -6z"/>
<path d="M4882 11743 c5 -26 38 -29 38 -4 0 15 -6 21 -21 21 -14 0 -19 -5 -17
-17z"/>
<path d="M6004 11706 c-15 -7 -24 -22 -28 -50 -3 -23 -9 -58 -12 -78 -7 -43
-6 -44 44 -22 l37 16 -32 10 c-18 4 -33 11 -33 15 0 3 16 23 35 44 19 22 35
45 35 53 0 19 -20 24 -46 12z"/>
<path d="M4407 11535 c8 -70 38 -159 80 -235 33 -62 102 -159 113 -160 11 -1
-7 174 -19 178 -34 11 -70 57 -99 129 -18 43 -43 92 -57 108 l-24 30 6 -50z"/>
<path d="M4670 11517 c0 -21 36 -67 53 -67 12 0 8 65 -5 78 -21 21 -48 14 -48
-11z"/>
<path d="M4230 11510 c0 -5 5 -32 11 -60 10 -49 30 -80 51 -80 14 0 0 99 -18
128 -14 22 -44 31 -44 12z"/>
<path d="M4190 11411 c0 -59 14 -101 33 -101 11 0 13 13 10 53 -6 77 -12 97
-28 97 -11 0 -15 -12 -15 -49z"/>
<path d="M5935 11410 c-8 -13 20 -24 41 -16 20 8 9 26 -16 26 -10 0 -22 -5
-25 -10z"/>
<path d="M4126 11320 c31 -135 109 -296 190 -396 49 -59 51 -64 29 -64 -33 0
-55 -38 -55 -95 0 -33 4 -55 11 -55 22 0 68 58 75 95 l7 38 19 -36 c11 -23 26
-37 38 -37 18 0 18 2 4 37 -14 32 -14 49 -3 128 13 97 8 145 -15 145 -29 0
-46 -30 -46 -83 l0 -51 -59 84 c-87 123 -151 240 -151 275 0 53 -11 75 -35 75
l-23 0 14 -60z"/>
<path d="M5913 11328 c2 -7 16 -13 32 -13 16 0 30 6 33 13 2 8 -8 12 -33 12
-25 0 -35 -4 -32 -12z"/>
<path d="M4446 11198 c-33 -47 -8 -96 35 -69 15 9 19 8 19 -4 0 -17 16 -20 25
-5 3 5 -4 23 -16 39 -12 16 -19 37 -16 45 10 25 -29 20 -47 -6z"/>
<path d="M5662 11208 c7 -20 54 -22 61 -4 5 13 -1 16 -29 16 -24 0 -34 -4 -32
-12z"/>
<path d="M7080 11163 c-47 -8 -77 -24 -88 -49 -10 -20 -9 -24 6 -24 22 0 112
56 112 70 0 5 -1 9 -2 9 -2 -1 -14 -4 -28 -6z"/>
<path d="M7159 11111 l-23 -18 32 -5 c38 -5 57 4 49 26 -8 21 -30 20 -58 -3z"/>
<path d="M3956 11043 c-3 -21 -6 -51 -6 -66 0 -16 -10 -38 -25 -53 -28 -28
-31 -59 -11 -108 13 -30 50 -56 62 -43 3 2 -3 23 -12 45 -29 73 -9 68 29 -7
66 -129 161 -235 290 -323 l57 -39 0 55 c0 55 0 55 -35 62 -34 6 -49 24 -21
24 7 0 19 7 26 15 11 13 9 20 -10 40 -31 33 -47 31 -55 -5 -7 -33 -32 -40 -42
-12 -3 9 -44 56 -90 103 -66 68 -83 93 -83 116 0 16 5 34 11 40 8 8 6 18 -5
35 -9 13 -20 48 -26 78 -16 84 -43 106 -54 43z"/>
<path d="M6694 11059 c-32 -9 -61 -35 -51 -45 7 -7 145 34 152 46 8 12 -58 12
-101 -1z"/>
<path d="M6493 11011 c-52 -38 -83 -81 -90 -128 l-6 -37 64 68 c78 84 107 126
86 126 -7 0 -32 -13 -54 -29z"/>
<path d="M5670 11010 c-14 -4 -71 -26 -127 -49 -67 -27 -126 -44 -168 -48 -36
-3 -70 -12 -76 -20 -10 -11 -5 -13 32 -7 141 21 346 88 384 125 11 11 -9 11
-45 -1z"/>
<path d="M5540 10889 c-14 -10 -56 -25 -94 -31 -38 -7 -71 -18 -73 -25 -3 -8
6 -10 30 -6 37 6 57 -16 33 -36 -7 -6 -113 -31 -236 -56 -123 -24 -259 -56
-302 -71 -71 -23 -206 -99 -196 -110 3 -2 83 21 179 52 181 58 295 84 357 83
30 0 33 -2 17 -9 -11 -5 -36 -11 -56 -15 -21 -3 -42 -12 -49 -20 -11 -13 -5
-15 37 -15 27 0 71 7 97 16 64 22 255 165 283 212 30 53 19 67 -27 31z"/>
<path d="M6150 10900 c-58 -4 -111 -8 -118 -9 -10 -1 -12 -10 -7 -31 6 -29 5
-30 -20 -24 -18 4 -32 1 -45 -11 -17 -15 -20 -16 -20 -3 0 8 9 23 20 33 21 19
27 45 11 45 -5 0 -23 -12 -40 -26 -38 -31 -57 -95 -66 -214 -6 -78 -17 -137
-32 -177 -5 -13 -3 -14 15 -4 37 20 52 63 52 151 0 95 18 143 58 158 61 23 62
23 62 -3 0 -13 5 -27 10 -30 6 -3 10 4 10 17 0 38 43 104 66 99 84 -15 111
-13 140 13 16 14 25 25 19 24 -5 -1 -57 -5 -115 -8z"/>
<path d="M5759 10754 c-46 -48 -84 -67 -120 -59 -21 5 -29 3 -29 -8 0 -7 -18
-41 -41 -75 -24 -36 -43 -77 -46 -101 -5 -33 -12 -45 -40 -62 -42 -26 -73 -86
-80 -154 -6 -58 5 -75 32 -48 12 11 16 29 13 60 -3 35 0 43 14 43 10 0 25 15
35 33 l17 32 6 -40 c12 -85 40 -89 40 -5 0 75 15 110 52 117 27 5 28 7 28 68
0 76 7 100 25 85 8 -7 17 -4 30 10 25 27 35 25 35 -7 0 -56 15 -56 50 -1 52
82 57 91 64 121 6 25 4 27 -22 27 -19 0 -39 -11 -63 -36z"/>
<path d="M4706 10734 c-54 -14 -81 -36 -89 -75 -6 -24 -5 -25 43 -25 45 0 50
2 50 23 0 12 12 33 26 46 38 35 27 46 -30 31z"/>
<path d="M4396 10538 c-3 -18 -9 -45 -12 -60 -5 -22 -3 -28 10 -28 24 0 48 44
44 82 -4 46 -33 50 -42 6z"/>
<path d="M5222 10535 c-76 -14 -91 -20 -78 -32 15 -15 83 -5 131 20 56 29 50
31 -53 12z"/>
<path d="M4601 10481 c-32 -38 -38 -50 -26 -55 8 -3 15 -12 15 -21 0 -8 6 -15
13 -15 32 0 116 33 167 65 l55 35 -38 0 c-21 0 -58 -5 -83 -11 -48 -12 -71 -4
-41 15 52 32 54 35 15 36 -31 0 -42 -7 -77 -49z"/>
<path d="M4210 10399 l0 -50 48 3 c46 3 47 4 44 33 -5 40 -29 65 -64 65 -27 0
-28 -2 -28 -51z"/>
<path d="M5166 10374 c-9 -24 -8 -26 16 -22 29 4 38 38 10 38 -11 0 -23 -7
-26 -16z"/>
<path d="M4540 10346 c0 -49 8 -56 45 -40 47 19 114 17 215 -6 153 -35 227
-20 95 19 -91 27 -232 51 -302 51 -49 0 -53 -2 -53 -24z"/>
<path d="M7435 10632 l-30 -17 99 -3 c153 -4 166 17 19 32 -45 5 -65 2 -88
-12z"/>
<path d="M6964 10400 c-52 -21 -34 -30 60 -30 52 0 97 4 100 9 11 17 -128 35
-160 21z"/>
<path d="M7410 10156 c0 -8 14 -24 30 -36 30 -21 30 -21 30 -1 0 13 -12 26
-30 36 -26 13 -30 13 -30 1z"/>
<path d="M7370 10007 c0 -25 32 -62 43 -50 11 11 8 48 -5 61 -19 19 -38 14
-38 -11z"/>
<path d="M7312 9740 c1 -43 -3 -56 -20 -71 -18 -14 -20 -22 -12 -43 12 -33 38
-33 46 0 4 14 14 29 24 32 16 6 16 12 5 55 -7 27 -19 56 -28 64 -15 15 -16 12
-15 -37z"/>
<path d="M3310 9740 c-13 -8 -12 -13 6 -36 28 -38 47 -48 77 -40 34 8 34 30 2
61 -25 26 -59 32 -85 15z"/>
<path d="M4438 9453 c-26 -7 -22 -22 7 -29 25 -6 55 9 55 27 0 9 -32 10 -62 2z"/>
<path d="M3684 9361 c-33 -20 -90 -88 -82 -96 11 -12 108 28 144 59 l39 34
-28 11 c-37 14 -37 14 -73 -8z"/>
<path d="M4223 9313 c-9 -3 -9 -11 3 -29 23 -34 44 -31 44 6 0 30 -14 37 -47
23z"/>
<path d="M3349 9020 c-67 -35 -128 -130 -129 -199 l0 -35 28 45 c16 25 61 68
101 98 67 50 101 85 101 103 0 15 -65 7 -101 -12z"/>
<path d="M1670 11949 c-40 -18 -60 -20 -167 -17 -102 3 -120 2 -111 -10 33
-39 69 -46 233 -47 104 -1 168 -5 182 -13 28 -16 33 -15 33 3 0 8 12 21 27 28
24 13 32 12 97 -19 101 -48 206 -63 208 -29 0 12 -189 89 -270 110 -82 22
-177 19 -232 -6z"/>
<path d="M1272 11918 c-18 -18 -15 -28 9 -28 12 0 37 -10 56 -21 25 -16 37
-19 46 -10 12 12 14 11 -37 45 -43 29 -56 32 -74 14z"/>
<path d="M1201 11846 c-6 -7 -37 -19 -69 -25 -31 -6 -73 -21 -92 -34 l-35 -22
63 -3 c80 -4 163 13 196 39 32 26 32 33 1 47 -34 16 -50 15 -64 -2z"/>
<path d="M1095 11721 c-30 -7 -95 -39 -85 -41 3 -1 100 -7 215 -15 227 -14
299 -31 345 -80 17 -19 27 -22 41 -15 42 23 159 -3 218 -49 23 -18 22 -18
-120 -24 -79 -4 -234 -20 -344 -37 -110 -16 -217 -30 -237 -30 -33 0 -68 -20
-68 -39 0 -4 -73 -36 -162 -71 -335 -129 -424 -175 -505 -256 -48 -48 -74 -96
-59 -111 3 -4 22 9 42 28 23 22 45 34 63 34 22 0 36 10 62 45 47 61 96 93 217
140 115 45 112 44 112 30 0 -6 -17 -18 -37 -27 -43 -19 -73 -42 -73 -55 0 -4
15 -8 34 -8 38 0 89 31 156 95 65 62 82 68 141 56 28 -6 72 -11 99 -11 44 0
50 3 62 28 7 15 32 37 58 50 38 19 60 22 161 22 l118 0 3 -32 c3 -36 15 -39
92 -23 39 8 39 8 32 -20 -8 -30 -18 -30 99 -8 l30 6 -24 -27 c-36 -39 -12 -34
132 24 80 32 139 50 166 50 47 0 139 -41 108 -48 -10 -2 -32 2 -48 8 -16 7
-39 12 -52 12 -26 0 -300 -108 -395 -156 -72 -36 -197 -124 -189 -132 9 -9
124 42 244 109 168 93 254 118 283 82 17 -20 37 -19 72 6 32 23 49 18 30 -9
-43 -60 -26 -62 78 -8 90 45 139 56 170 36 12 -8 12 -10 -5 -10 -39 0 -95 -21
-122 -45 -26 -23 -26 -24 -7 -25 11 0 54 11 95 25 89 31 143 35 165 14 14 -14
9 -17 -52 -27 -37 -6 -74 -18 -83 -27 -14 -13 -12 -15 20 -15 20 0 62 9 94 20
66 23 106 25 123 8 20 -20 14 -25 -42 -32 -76 -9 -154 -30 -287 -77 -210 -76
-274 -91 -392 -92 -86 -2 -110 1 -117 13 -5 8 -8 21 -5 28 21 58 20 59 -37 51
-29 -4 -90 -15 -136 -24 -123 -25 -191 -7 -233 62 -12 21 -23 39 -24 41 -1 1
-37 -14 -79 -34 -43 -19 -80 -33 -83 -30 -4 3 15 28 40 55 80 85 54 93 -69 21
-74 -43 -88 -45 -179 -26 -33 7 -71 10 -85 6 -25 -6 -53 -47 -44 -62 3 -5 54
-8 112 -8 79 1 117 -3 146 -15 21 -9 99 -25 175 -36 140 -20 218 -40 261 -68
21 -14 55 -16 231 -13 223 4 217 5 228 -51 6 -26 14 -32 71 -52 36 -12 101
-39 145 -60 44 -21 100 -46 125 -56 l45 -18 -42 -1 c-23 0 -45 -5 -49 -12 -12
-20 139 -1 222 28 42 14 134 53 206 85 112 52 256 100 292 98 6 0 -12 -11 -40
-23 -50 -23 -73 -49 -53 -61 5 -4 26 3 45 14 43 26 54 26 54 3 0 -11 -12 -25
-27 -32 l-28 -14 27 -4 c18 -2 40 7 68 27 35 25 46 29 62 20 26 -14 14 -26
-43 -42 -86 -25 -44 -61 92 -78 94 -12 145 -32 64 -26 -27 3 -59 8 -71 11 -15
6 -32 -2 -64 -29 -143 -120 -378 -205 -566 -205 -60 0 -74 -3 -74 -15 0 -9 14
-24 31 -33 67 -37 75 -47 62 -81 -10 -29 -9 -32 25 -62 38 -34 121 -75 208
-103 28 -9 76 -32 107 -50 l55 -34 51 29 c27 16 113 89 189 163 135 129 191
168 260 182 40 8 40 -5 0 -31 -36 -23 -47 -45 -24 -45 26 0 96 24 96 33 0 26
-80 166 -134 233 -69 86 -145 153 -360 321 l-140 109 -75 -14 c-60 -11 -82
-11 -106 -2 l-30 12 58 12 c31 7 62 17 67 22 19 19 -215 137 -392 198 -202 69
-452 116 -748 139 l-165 13 90 9 c117 10 368 0 473 -19 186 -34 418 -108 646
-205 54 -23 100 -41 102 -38 12 11 -77 73 -181 125 -139 70 -303 116 -455 127
-104 8 -158 25 -309 99 -52 25 -157 66 -232 91 -179 58 -455 104 -524 86z
m595 -329 c0 -19 -27 -32 -64 -32 -38 0 -39 0 -21 20 18 20 85 29 85 12z m118
-1 c18 -11 -4 -29 -46 -37 -36 -7 -40 1 -15 28 17 19 40 23 61 9z m162 -20 c0
-19 -32 -33 -90 -40 -33 -4 -60 -4 -60 -1 0 9 31 36 50 43 25 9 100 8 100 -2z
m-782 -23 c19 -19 15 -48 -8 -48 -23 0 -35 22 -26 45 7 18 18 19 34 3z m-88
-29 c0 -14 -7 -19 -25 -19 -18 0 -25 5 -25 18 0 25 7 31 31 25 10 -3 19 -14
19 -24z m1594 -210 c-3 -6 -35 -24 -69 -39 -34 -15 -65 -32 -69 -38 -3 -5 6
-19 19 -32 25 -23 42 -24 133 -5 39 9 43 -7 6 -24 -27 -12 -28 -34 -3 -39 9
-1 41 15 73 37 58 39 59 39 103 26 47 -14 83 -40 83 -59 0 -7 -24 -17 -53 -23
-29 -6 -113 -37 -187 -68 -162 -68 -260 -95 -350 -95 -60 0 -69 3 -93 28 -18
19 -25 35 -21 45 5 14 0 17 -24 17 -31 0 -54 16 -72 51 -14 25 -34 24 -70 -3
-22 -16 -33 -19 -41 -11 -8 8 -1 18 23 36 79 59 167 92 393 147 88 21 171 43
185 49 33 13 43 13 34 0z m547 -467 c-7 -2 -18 1 -23 6 -8 8 -4 9 13 5 13 -4
18 -8 10 -11z m97 -14 c-2 -14 -16 -30 -37 -40 -47 -23 -58 -35 -44 -49 9 -9
20 -6 46 10 45 28 77 28 70 1 -4 -16 0 -20 17 -20 16 0 -4 -24 -91 -107 -181
-174 -265 -234 -361 -261 -33 -9 -38 -8 -38 6 0 8 10 27 23 40 l22 25 -50 -7
c-142 -19 -148 -19 -143 -5 3 8 27 19 54 25 54 11 69 35 34 54 -17 9 -36 6
-96 -14 -78 -27 -104 -32 -104 -17 0 9 110 61 129 61 17 0 13 15 -9 35 -16 14
-30 17 -70 12 -27 -3 -50 -4 -50 -2 0 12 100 58 213 99 140 50 195 76 244 112
42 32 62 30 74 -6 6 -16 15 -30 20 -30 5 0 34 23 64 50 60 55 88 64 83 28z"/>
<path d="M2839 10950 l-24 -19 32 -1 c22 0 36 6 43 20 9 17 8 20 -9 20 -10 0
-29 -9 -42 -20z"/>
<path d="M835 11696 c-119 -45 -154 -73 -140 -117 6 -19 8 -19 56 8 50 27 173
132 154 132 -5 0 -37 -11 -70 -23z"/>
<path d="M3000 11606 c0 -2 28 -31 62 -65 61 -62 110 -95 129 -89 16 5 -67
114 -105 137 -28 18 -86 29 -86 17z"/>
<path d="M1423 11580 c-13 -5 -23 -12 -23 -14 0 -3 6 -3 14 0 8 3 37 -4 64
-16 28 -12 56 -19 61 -15 21 12 11 33 -20 44 -38 13 -66 13 -96 1z"/>
<path d="M676 11528 c-118 -13 -129 -27 -21 -28 94 0 208 15 234 30 20 12
-104 11 -213 -2z"/>
<path d="M1050 11507 c-79 -22 -150 -78 -150 -118 0 -21 60 0 106 37 45 37 45
37 136 35 69 -1 97 3 116 15 16 11 21 19 14 26 -16 16 -171 20 -222 5z"/>
<path d="M587 11439 c-49 -15 -108 -31 -132 -35 -36 -5 -50 -13 -71 -43 -15
-20 -48 -57 -73 -83 -50 -53 -50 -53 49 -36 l70 12 0 46 0 46 163 54 c89 30
166 58 172 62 23 19 -98 3 -178 -23z"/>
<path d="M2905 11418 c14 -47 67 -154 88 -176 23 -24 68 -52 86 -52 11 0 -31
109 -61 158 -20 33 -91 92 -110 92 -5 0 -6 -10 -3 -22z"/>
<path d="M1350 11329 c-30 -12 -70 -48 -70 -63 1 -36 18 -36 84 1 37 21 72 46
77 55 9 16 5 18 -28 17 -21 0 -49 -5 -63 -10z"/>
<path d="M3360 11253 c0 -43 18 -99 41 -125 l20 -23 -7 45 c-6 45 -38 130 -48
130 -3 0 -6 -12 -6 -27z"/>
<path d="M295 11208 c-50 -10 -51 -11 -84 -78 -25 -50 -31 -72 -24 -85 9 -15
12 -13 23 15 7 18 43 55 81 86 99 78 99 80 4 62z"/>
<path d="M717 11090 c-29 -23 -36 -50 -12 -50 17 0 49 44 43 60 -2 7 -14 3
-31 -10z"/>
<path d="M153 10808 c-38 -39 -42 -58 -13 -58 24 0 53 41 48 70 -3 20 -5 19
-35 -12z"/>
<path d="M2445 10653 c-33 -7 -88 -12 -123 -10 -59 3 -62 2 -56 -18 10 -30 23
-44 82 -82 30 -19 56 -43 59 -54 7 -26 27 -24 103 12 56 26 62 32 46 41 -12 7
-31 6 -62 -2 -24 -7 -51 -9 -61 -5 -13 5 3 12 51 21 43 8 78 21 90 34 l20 20
-34 0 c-19 0 -57 -7 -84 -15 -62 -19 -130 -19 -145 -1 -9 11 2 14 65 18 59 4
80 10 97 26 11 12 19 23 16 25 -2 1 -31 -3 -64 -10z"/>
<path d="M3006 10082 c-4 -7 -16 -12 -26 -12 -22 0 -52 -28 -47 -43 2 -6 18
-12 36 -13 23 -1 44 -13 72 -40 21 -21 41 -35 44 -32 4 3 1 25 -5 47 -13 48
-63 111 -74 93z"/>
<path d="M5512 9794 c-12 -8 -50 -57 -84 -107 -33 -51 -72 -104 -86 -119 -24
-26 -25 -28 -6 -28 12 0 65 23 120 50 62 31 87 48 66 44 -24 -4 -34 -2 -38 11
-14 36 12 39 128 11 73 -17 125 -24 146 -20 70 14 45 27 -133 70 -68 16 -106
34 -73 34 30 0 139 53 125 62 -23 14 -141 9 -165 -8z"/>
<path d="M4967 9149 c-58 -34 -61 -190 -5 -237 13 -11 16 -8 21 15 3 16 9 40
12 54 5 21 0 33 -24 58 -40 41 -39 57 4 78 38 18 54 43 27 43 -9 0 -25 -5 -35
-11z"/>
<path d="M5064 8905 c-61 -35 -119 -84 -109 -93 10 -10 138 63 158 90 12 15
19 30 16 32 -3 3 -32 -10 -65 -29z"/>
<path d="M4850 8758 c-19 -21 -26 -38 -14 -38 14 0 45 22 54 40 15 28 -13 27
-40 -2z"/>
<path d="M4816 8604 c-3 -9 -6 -35 -6 -58 0 -71 68 -150 84 -98 4 11 2 31 -4
46 -5 15 -10 47 -10 71 0 30 -5 45 -16 49 -26 10 -42 7 -48 -10z"/>
<path d="M5030 8538 c-43 -30 -73 -71 -68 -94 3 -16 12 -11 56 31 61 56 81 85
59 85 -8 0 -29 -10 -47 -22z"/>
<path d="M4980 8346 c0 -28 27 -77 70 -130 l40 -48 0 70 c0 56 4 75 21 97 l22
27 -41 -21 c-52 -26 -60 -26 -89 1 -21 19 -23 20 -23 4z"/>
<path d="M4070 7718 c1 -7 7 -40 15 -73 8 -33 15 -75 15 -93 0 -40 -8 -43
-155 -72 -707 -139 -1253 -541 -1476 -1085 -52 -129 -94 -273 -163 -570 -31
-132 -62 -263 -70 -290 -11 -43 -11 -72 5 -205 9 -85 27 -245 39 -355 12 -110
34 -258 49 -330 24 -113 31 -134 59 -163 30 -32 62 -115 62 -162 0 -14 26 -50
68 -94 37 -39 123 -145 192 -236 289 -381 443 -493 1045 -763 272 -121 283
-127 289 -154 5 -19 -10 -80 -39 -154 -4 -11 1 -18 16 -22 19 -5 21 -11 16
-44 -3 -21 -8 -46 -12 -56 -5 -13 -3 -16 8 -11 29 11 57 -31 57 -85 0 -59 22
-90 48 -69 14 12 14 6 8 -57 -4 -38 -29 -172 -56 -297 -28 -125 -50 -234 -50
-242 0 -8 9 -20 20 -26 29 -16 47 -56 75 -175 29 -122 62 -190 140 -291 136
-173 171 -243 162 -321 -9 -84 -118 -253 -162 -253 -11 0 -15 -13 -15 -49 0
-55 -15 -78 -58 -87 -36 -7 -54 -17 -66 -37 -16 -25 -2 -29 38 -10 50 23 58
10 53 -87 -5 -104 -29 -145 -158 -273 -116 -114 -124 -137 -34 -103 43 17 61
34 174 165 59 69 71 68 71 -4 0 -49 -19 -80 -104 -168 -85 -88 -100 -133 -38
-111 19 7 38 29 62 74 25 45 43 66 63 73 16 5 31 7 34 4 3 -3 -3 -26 -12 -51
-10 -25 -15 -53 -11 -62 6 -15 9 -14 32 7 21 20 27 21 34 9 5 -8 10 -26 10
-40 1 -37 37 -110 73 -148 35 -36 66 -55 110 -66 24 -6 27 -4 27 18 0 30 -32
63 -70 71 -27 6 -78 50 -69 60 3 2 21 0 40 -5 28 -8 36 -7 46 7 11 14 6 18
-39 34 -90 30 -95 56 -43 205 42 119 43 157 10 316 -26 126 -32 229 -15 288 5
19 27 56 49 83 52 63 66 106 65 202 -1 69 -6 95 -43 189 -26 67 -44 134 -48
173 -5 55 -12 71 -41 106 -49 58 -83 138 -89 208 l-6 59 74 -40 c93 -52 102
-60 130 -123 19 -45 23 -77 30 -242 8 -200 20 -265 50 -265 12 0 19 9 21 28 6
51 32 30 83 -68 l50 -95 50 -6 c56 -7 102 -27 155 -70 45 -34 108 -65 117 -56
3 4 -7 26 -24 50 -43 59 -118 97 -193 97 l-58 0 -76 114 c-87 128 -106 179
-106 278 l0 68 39 0 c57 0 70 21 37 60 -14 17 -33 57 -41 88 -9 31 -20 74 -26
95 -16 59 -61 101 -169 156 -113 59 -152 89 -170 130 -10 26 -7 44 29 156 70
213 76 346 20 415 l-20 25 4 -55 c8 -84 -10 -196 -54 -347 -24 -83 -42 -170
-46 -218 -5 -75 -4 -85 26 -153 19 -43 31 -85 29 -103 l-3 -29 -52 35 c-68 46
-86 80 -74 137 5 24 12 75 16 113 13 140 39 227 82 277 19 21 9 38 -22 38 -24
0 -24 1 -19 68 8 102 11 109 46 121 l33 12 -34 28 c-33 27 -33 28 -21 63 14
38 16 34 -35 104 -12 16 -13 27 -6 48 9 22 16 26 50 26 46 0 64 22 59 68 -2
22 -11 30 -50 42 -72 23 -68 30 18 30 105 0 111 -5 91 -66 -18 -56 -37 -146
-37 -174 0 -14 12 -21 54 -30 64 -13 103 -41 122 -86 17 -40 12 -55 -26 -77
-41 -24 -46 -50 -17 -82 14 -15 32 -36 41 -46 23 -27 33 -24 40 12 14 71 5
148 -29 265 -19 65 -35 120 -35 121 0 2 31 -12 69 -31 120 -61 150 -125 91
-192 -27 -31 -32 -64 -10 -64 5 0 16 -24 25 -52 15 -48 60 -106 72 -94 3 2 -1
39 -8 80 -11 70 -8 151 6 201 8 28 -101 147 -172 187 -45 25 -51 32 -43 48 6
10 10 32 10 49 0 20 6 31 18 35 9 3 139 41 287 85 427 127 551 180 747 318
216 151 428 355 546 524 110 157 244 422 312 614 120 344 164 759 119 1130
-32 264 -114 505 -264 776 -57 101 -75 125 -129 168 -43 34 -72 68 -91 104
-25 47 -46 66 -169 154 -321 229 -588 381 -797 453 -52 17 -100 34 -106 37 -9
3 -13 -5 -13 -24 0 -36 -29 -65 -91 -91 -99 -43 -58 -61 100 -43 161 17 214
15 242 -10 20 -17 21 -19 4 -12 -11 4 -85 6 -165 5 -124 -3 -148 -7 -169 -23
-13 -11 -62 -31 -109 -45 -109 -33 -145 -67 -126 -117 4 -12 18 -14 65 -10 61
6 89 -5 89 -35 0 -13 -15 -14 -112 -7 -167 12 -279 11 -312 -3 -16 -7 -27 -14
-25 -17 2 -2 86 -9 187 -15 227 -15 282 -28 120 -29 -65 -1 -118 -5 -118 -9 0
-26 30 -32 167 -32 132 0 144 2 155 20 16 26 30 25 46 -1 14 -21 14 -21 48 12
l35 34 232 1 c128 0 243 4 255 9 44 15 1 25 -108 25 -58 0 -111 4 -117 8 -7 4
18 8 55 9 37 0 112 8 168 18 91 15 104 15 137 1 55 -22 46 -36 -23 -36 -37 0
-60 -4 -60 -11 0 -7 29 -10 88 -7 84 3 87 2 90 -19 3 -22 1 -23 -88 -23 -58 0
-89 -4 -85 -10 3 -6 51 -10 107 -10 116 0 168 -13 209 -51 50 -46 40 -53 -67
-46 -72 5 -104 3 -130 -8 -89 -37 20 -52 147 -19 80 20 122 18 144 -6 10 -11
16 -23 13 -26 -10 -10 -716 -16 -888 -7 l-165 8 -3 57 c-3 57 -15 74 -47 62
-20 -8 -19 -20 6 -61 41 -66 38 -67 -234 -60 -133 4 -334 16 -447 27 -224 22
-635 37 -610 22 8 -5 71 -12 140 -15 69 -4 242 -15 385 -26 604 -46 828 -55
1368 -56 434 0 521 -2 487 -12 -38 -11 -133 -19 -490 -41 -64 -4 -98 -10 -86
-15 34 -14 306 -9 449 8 111 14 151 15 182 6 45 -13 72 -27 64 -35 -12 -12
-202 -26 -359 -26 -157 0 -287 -12 -315 -28 -8 -4 109 -7 258 -6 221 1 282 4
327 17 75 23 115 22 141 -4 12 -12 17 -25 12 -29 -12 -13 -249 -30 -488 -37
-115 -3 -214 -9 -219 -14 -6 -6 -6 -9 0 -9 5 0 133 -2 284 -3 239 -2 284 0
347 16 78 21 113 13 113 -23 0 -16 -7 -20 -32 -20 -158 0 -621 -40 -636 -55
-9 -9 260 -5 330 5 126 18 284 29 342 23 52 -5 56 -7 42 -21 -11 -11 -45 -17
-117 -21 -62 -4 -104 -10 -106 -17 -3 -8 35 -11 126 -10 122 1 154 -4 137 -21
-4 -5 -141 -7 -304 -5 -296 2 -405 -5 -480 -33 -32 -12 11 -14 333 -10 204 2
393 6 420 10 43 6 53 4 69 -14 19 -21 19 -21 -5 -23 -13 -1 -172 -2 -354 -2
-280 -1 -337 -4 -375 -18 l-45 -16 40 -3 c22 -1 207 -1 410 1 l370 3 -20 -23
c-19 -21 -26 -22 -112 -18 -66 4 -98 2 -110 -8 -16 -11 -16 -13 10 -19 15 -4
72 -2 126 5 76 9 104 9 121 0 29 -16 17 -25 -48 -39 -103 -22 -330 -5 -335 24
-1 6 14 11 33 13 40 4 52 12 42 29 -6 10 -42 11 -147 5 -77 -4 -161 -5 -187
-2 -37 5 -48 3 -48 -7 0 -19 43 -33 99 -33 61 0 87 -23 47 -42 -21 -9 -46 -9
-118 1 -85 12 -92 12 -116 -6 -41 -30 -41 -47 -1 -39 102 21 229 19 229 -4 0
-6 -16 -10 -35 -10 -43 0 -105 -24 -105 -41 0 -7 8 -9 23 -4 12 3 141 10 287
14 146 4 273 11 283 16 29 12 1 25 -55 25 -58 0 -72 15 -15 16 23 1 75 4 115
9 63 7 75 6 92 -10 26 -23 12 -40 -38 -50 -60 -11 -61 -20 -2 -25 44 -4 56 -9
58 -24 3 -14 0 -17 -13 -12 -57 21 -155 25 -285 10 -88 -11 -167 -14 -225 -10
-93 7 -149 -3 -159 -29 -8 -22 67 -28 210 -15 321 28 395 26 455 -13 l34 -22
-265 -6 c-291 -7 -460 -18 -460 -29 0 -16 228 -18 360 -3 153 17 293 12 338
-11 70 -36 54 -39 -199 -34 -256 5 -377 -2 -444 -25 l-40 -14 65 -8 c36 -4
123 -2 193 4 213 18 366 15 432 -10 31 -12 53 -24 50 -27 -4 -4 -113 -8 -243
-8 -280 -2 -357 -7 -397 -25 -29 -13 -28 -14 40 -17 39 -2 165 2 281 8 201 12
282 10 313 -9 11 -7 6 -13 -20 -27 -31 -17 -60 -19 -294 -19 -244 0 -263 -1
-290 -20 l-30 -20 55 -4 c30 -1 139 3 241 9 219 15 381 8 358 -15 -14 -13
-161 -20 -279 -12 -160 10 -278 3 -343 -19 -27 -9 -47 -18 -45 -19 2 -2 98 -9
213 -15 184 -10 219 -10 285 4 101 22 132 20 160 -6 l25 -23 -45 -6 c-25 -4
-112 -2 -195 3 -190 12 -293 5 -362 -27 -29 -13 -53 -27 -53 -31 0 -4 19 -4
41 -1 44 6 69 1 69 -14 0 -5 -28 -9 -63 -9 -58 0 -87 -11 -87 -32 0 -5 147 -7
328 -6 227 2 333 0 346 -8 16 -10 13 -12 -25 -18 -24 -3 -168 -7 -319 -7 -173
-1 -282 -5 -295 -12 -19 -10 -18 -11 10 -19 63 -18 286 -21 394 -4 58 9 124
16 149 16 41 0 102 -25 102 -42 0 -4 -156 -8 -347 -8 -347 -1 -348 -1 -324
-20 16 -14 38 -20 70 -20 50 0 121 -17 121 -28 0 -4 -72 -6 -161 -4 -130 3
-160 1 -157 -10 11 -34 47 -37 338 -31 280 6 420 0 420 -17 0 -5 -7 -7 -16 -3
-9 3 -164 0 -345 -7 -287 -12 -329 -15 -329 -29 0 -9 14 -24 31 -33 43 -25 28
-40 -32 -32 -47 6 -79 -5 -79 -27 0 -18 111 -21 375 -9 172 8 303 10 340 4
l60 -8 -75 -7 c-41 -3 -190 -7 -330 -8 -254 -2 -255 -2 -232 -21 13 -11 40
-24 60 -30 54 -15 263 -12 367 5 104 17 173 19 195 5 8 -5 12 -10 9 -10 -3 0
-31 -5 -61 -10 -31 -6 -166 -14 -300 -19 -221 -7 -247 -10 -293 -30 -43 -20
-47 -24 -30 -31 31 -13 136 -11 285 4 211 22 302 27 340 18 34 -8 34 -9 -30
-20 -115 -20 -241 -32 -422 -39 -146 -5 -175 -8 -171 -20 13 -35 18 -35 543
-8 82 4 88 3 45 -6 -27 -5 -73 -14 -101 -20 -29 -5 -60 -19 -69 -29 -18 -19
-17 -20 16 -20 19 0 66 7 105 16 39 10 80 14 90 10 17 -6 16 -7 -2 -20 -40
-28 -106 -37 -339 -45 -177 -6 -250 -13 -276 -24 -71 -30 -57 -37 73 -37 68 0
130 -5 138 -10 10 -7 -34 -10 -132 -10 -126 0 -148 -2 -148 -15 0 -9 10 -19
23 -24 22 -8 361 3 425 14 19 4 59 3 90 -1 l57 -8 -40 -8 c-22 -4 -156 -10
-297 -14 l-258 -7 0 -23 c0 -35 -34 -47 -147 -52 -57 -3 -103 -7 -103 -11 0
-3 10 -13 23 -20 17 -12 69 -14 257 -12 138 1 245 -2 260 -8 18 -7 -38 -10
-193 -10 -224 -1 -239 -4 -174 -38 37 -19 186 -23 340 -9 92 9 97 10 97 32 0
45 52 75 128 73 96 -2 102 -14 14 -27 -142 -20 -161 -52 -31 -52 36 0 69 -3
73 -7 11 -12 -273 -43 -451 -50 -151 -5 -163 -7 -163 -25 0 -27 -39 -38 -134
-38 -76 0 -106 -9 -106 -32 0 -4 36 -8 80 -8 74 0 140 -17 140 -37 0 -3 -33
-3 -73 0 -57 5 -78 3 -95 -9 -12 -8 -20 -20 -17 -25 4 -5 140 -9 327 -9 177 0
319 -3 315 -6 -3 -3 -154 -10 -335 -14 -181 -4 -337 -12 -347 -17 -16 -9 -16
-11 1 -28 19 -19 70 -19 499 0 83 4 125 3 115 -3 -29 -18 -157 -27 -400 -27
-231 0 -248 -1 -292 -22 -27 -12 -48 -27 -48 -32 0 -16 252 -13 455 4 321 28
394 12 99 -21 -131 -15 -239 -18 -611 -17 -249 0 -453 -1 -453 -3 0 -1 7 -10
16 -18 14 -14 82 -16 587 -17 337 -1 547 -5 512 -10 -76 -10 -503 -29 -657
-29 -65 0 -118 -4 -118 -9 0 -20 31 -33 65 -27 40 8 75 0 75 -16 0 -11 -91 -8
-250 8 l-65 6 28 -28 27 -29 139 0 c102 0 142 -4 154 -14 10 -7 17 -16 17 -20
0 -3 -58 -5 -130 -3 -111 3 -129 1 -124 -12 13 -33 57 -38 251 -31 300 12 315
17 252 89 -17 20 -30 38 -28 40 2 3 94 7 204 11 169 6 198 5 187 -6 -10 -11
-44 -14 -143 -12 -99 1 -129 -2 -129 -12 0 -29 29 -38 98 -31 65 6 102 2 102
-13 0 -3 -45 -5 -100 -3 -95 3 -100 2 -100 -17 0 -26 27 -40 67 -34 18 3 40 2
50 -1 15 -6 14 -9 -8 -20 -13 -7 -51 -27 -83 -44 -48 -26 -70 -32 -122 -32
-53 0 -62 -3 -57 -16 3 -8 18 -18 34 -21 36 -7 52 -26 44 -53 -4 -13 -15 -20
-33 -20 -52 0 -197 -24 -204 -34 -12 -18 2 -26 48 -26 24 0 44 -4 44 -8 0 -4
-269 -7 -597 -6 -481 2 -616 5 -688 17 l-90 16 80 -3 c44 -2 142 -9 217 -17
125 -12 141 -11 173 4 42 20 45 37 7 37 -69 0 -500 32 -592 44 -85 11 -103 11
-107 -1 -11 -29 18 -43 91 -43 39 0 78 -5 86 -10 18 -11 -200 -12 -240 -1 -20
6 -25 13 -24 38 l2 31 -222 5 c-165 3 -236 9 -281 22 -75 21 -90 34 -33 29 23
-2 115 -11 202 -19 88 -8 194 -15 235 -14 90 1 173 13 151 22 -49 21 -135 29
-380 37 -176 5 -289 13 -315 21 l-40 13 70 8 c94 10 405 -1 534 -18 58 -8 122
-14 143 -14 40 0 108 23 108 37 0 4 -55 9 -123 10 -67 0 -187 9 -267 18 -80 9
-226 20 -326 24 -154 6 -185 10 -215 27 -31 18 -67 69 -56 80 2 2 38 0 79 -6
57 -8 118 -7 254 4 98 9 180 13 182 11 19 -19 -254 -50 -378 -43 -71 4 -81
-14 -22 -40 31 -14 77 -17 282 -18 134 -1 264 -5 288 -9 41 -6 43 -5 33 14
-15 28 -14 31 13 31 36 0 39 13 11 51 -14 19 -28 42 -31 51 -12 35 -48 35
-441 -3 -119 -12 -284 -2 -304 18 -5 5 50 7 121 5 130 -4 148 1 113 29 -12 11
-54 14 -169 14 -133 0 -156 2 -171 18 -16 16 -11 17 115 17 73 0 132 4 132 9
0 20 -71 39 -170 46 -164 12 -163 24 2 24 81 1 149 5 152 9 2 4 1 14 -4 22 -7
11 -27 14 -77 13 -37 -2 -75 1 -83 7 -12 7 -8 10 16 10 17 0 77 7 133 15 99
15 159 13 191 -7 10 -6 -2 -8 -35 -5 -53 5 -85 -5 -85 -27 0 -11 22 -15 88
-18 60 -2 95 -8 107 -18 16 -14 7 -15 -96 -20 l-114 -5 38 -18 c32 -15 63 -17
216 -15 134 2 183 0 192 -9 10 -11 -22 -13 -162 -13 l-174 0 31 -20 c35 -23
166 -40 307 -40 78 0 87 2 87 19 0 10 -7 24 -15 31 -25 21 -17 25 53 26 37 1
83 8 102 17 35 15 35 15 -57 16 -50 1 -104 6 -120 13 l-28 11 40 8 c22 5 75
11 118 15 65 5 78 8 75 22 -4 22 -67 27 -160 12 -39 -6 -73 -8 -76 -5 -3 3 0
16 6 29 9 20 8 26 -6 33 -9 4 -184 8 -387 9 -311 1 -383 4 -447 18 -43 10 -80
21 -83 27 -9 13 60 10 135 -6 86 -19 94 -18 121 5 38 31 10 40 -128 40 -114 0
-173 11 -173 32 0 10 -4 10 145 -2 66 -5 247 -10 403 -11 258 -1 285 0 303 17
10 9 16 20 13 23 -3 3 -186 9 -407 13 -555 9 -595 26 -65 27 331 1 419 -2 472
-14 72 -17 106 -13 131 15 16 18 15 19 -22 25 -21 3 -51 8 -68 11 -16 3 -208
9 -425 14 -413 9 -533 17 -524 32 4 5 179 8 427 6 328 -2 439 0 500 11 57 10
75 17 67 25 -8 8 -158 11 -498 12 -303 1 -500 5 -522 12 -25 7 88 10 417 11
378 1 452 3 447 15 -16 41 -183 59 -404 44 -232 -16 -428 -15 -480 2 l-45 15
105 2 c191 5 199 26 19 49 -157 21 -169 33 -32 34 157 0 164 29 10 44 -63 6
-125 22 -116 30 2 2 85 -3 184 -10 99 -7 259 -16 355 -19 96 -4 204 -13 240
-21 71 -16 115 -11 124 13 4 9 5 17 4 18 -2 2 -113 10 -248 19 -135 9 -296 23
-357 32 -62 8 -156 13 -208 12 -92 -2 -97 -1 -122 25 -15 14 -25 28 -22 30 2
3 49 -1 104 -9 106 -14 175 -6 175 21 0 22 -59 35 -164 34 -87 -1 -101 2 -120
20 l-20 21 115 0 c64 0 210 -7 325 -16 213 -16 490 -15 549 3 28 9 27 10 -25
16 -30 4 -194 12 -365 17 -279 8 -476 25 -575 49 -68 16 -2 25 104 13 101 -11
167 -5 189 17 19 19 -2 25 -140 33 -231 15 -191 27 87 28 179 0 292 -5 375
-16 130 -17 228 -15 263 7 12 8 22 17 22 20 0 13 -106 19 -440 25 -353 6 -445
15 -480 50 -13 13 2 14 131 13 146 -1 195 8 186 34 -2 8 -49 14 -143 18 -76 3
-147 9 -157 13 -23 11 -40 43 -28 51 6 3 80 -2 165 -12 176 -20 199 -15 152
32 l-27 27 -127 -7 c-115 -7 -129 -6 -150 11 -28 23 -22 48 18 64 22 9 46 8
112 -4 47 -9 99 -16 117 -16 34 0 71 15 71 29 0 4 -57 13 -127 19 -71 7 -146
17 -168 24 l-40 12 40 7 c36 5 37 6 10 8 l-30 3 30 9 c43 14 123 2 254 -38
110 -34 127 -36 316 -43 192 -8 242 -15 282 -40 14 -9 -23 -9 -157 -4 -213 10
-280 8 -317 -8 -25 -11 -18 -13 72 -19 143 -9 1021 13 930 23 -38 5 -142 17
-230 28 -370 46 -508 60 -655 66 -145 6 -156 8 -177 30 -27 27 -52 32 -196 37
-96 3 -110 6 -132 27 -14 13 -25 27 -25 31 0 19 82 18 185 -2 108 -21 187 -21
207 -1 10 10 -28 17 -209 41 -70 9 -173 45 -161 56 2 2 89 -7 193 -20 508 -63
1375 -118 1375 -87 0 11 -76 18 -130 13 -9 -1 -204 14 -435 34 -439 37 -652
62 -788 95 -45 11 -101 20 -124 20 -38 0 -73 19 -73 40 0 15 67 20 142 10 41
-6 149 -29 239 -51 208 -51 363 -62 455 -33 l59 19 -184 12 c-242 16 -480 47
-565 73 -73 23 -116 56 -116 90 0 24 8 25 34 5 13 -10 44 -15 92 -15 51 0 121
-12 233 -39 182 -45 282 -61 385 -61 86 0 166 10 166 20 0 8 -17 10 -325 40
-242 24 -354 43 -460 75 -107 33 -126 47 -55 40 194 -18 315 -30 640 -65 482
-53 734 -70 970 -69 262 2 172 14 -210 28 -499 18 -562 24 -710 67 -71 20
-106 24 -221 24 -128 0 -143 2 -219 30 -59 22 -99 30 -145 30 -68 0 -110 13
-120 38 -9 23 0 25 62 13 32 -6 85 -16 118 -23 64 -12 145 -4 128 13 -5 5 -59
16 -120 23 -113 14 -139 22 -163 51 -30 37 37 45 166 20 43 -8 80 -12 83 -10
3 3 -2 13 -11 21 -11 11 -44 18 -103 23 -94 7 -115 20 -115 68 0 19 4 22 23
18 12 -3 60 -14 107 -25 100 -23 139 -25 165 -6 16 12 8 14 -71 21 -96 8 -139
21 -167 52 -16 18 -16 21 -2 33 11 9 30 11 68 5 76 -11 137 -11 138 0 0 6 -19
13 -43 18 -80 14 -118 28 -128 47 -16 30 30 37 105 16 111 -32 139 -37 163
-31 35 9 23 15 -73 36 -91 20 -133 37 -154 63 -19 23 11 32 56 18 35 -11 63
-7 63 9 0 5 -12 9 -26 9 -37 0 -64 18 -64 42 0 22 16 22 104 2 22 -5 28 -4 24
7 -3 8 -21 17 -42 20 -48 8 -64 23 -46 44 16 19 53 19 116 0 56 -17 110 -19
119 -5 3 5 -14 14 -37 20 -69 17 -111 34 -115 46 -6 19 30 22 86 7 52 -13 91
-10 91 6 0 5 -18 11 -40 14 -46 6 -94 33 -85 47 8 14 41 12 102 -4 44 -12 55
-12 70 0 16 12 15 13 -17 14 -39 0 -80 23 -80 46 0 16 28 18 80 5 19 -5 80
-21 135 -35 124 -32 267 -44 310 -25 30 14 30 14 -25 16 -212 10 -348 38 -402
83 l-23 19 34 1 c19 0 63 -5 99 -11 41 -7 67 -8 73 -2 7 7 -8 12 -42 16 -52 6
-89 29 -89 53 0 23 21 27 77 13 52 -12 56 -11 70 7 13 17 11 20 -19 28 l-33
10 40 5 c37 6 40 8 38 35 -2 28 -1 28 35 23 20 -4 64 -20 96 -37 33 -17 61
-28 63 -26 14 14 -14 50 -52 66 -24 10 -48 28 -54 38 -10 18 -3 24 67 57 110
52 127 54 207 14 72 -35 186 -52 207 -31 13 13 1 16 -112 32 -67 10 -129 34
-117 46 2 3 96 -8 208 -22 220 -30 539 -39 588 -18 24 10 23 11 -25 34 -45 22
-61 24 -244 26 -197 3 -249 11 -301 47 -19 14 -19 15 -2 22 27 10 209 19 200
10 -17 -18 58 -35 156 -35 123 0 119 17 -5 22 -48 1 -91 8 -97 13 -7 7 62 10
205 10 153 1 217 4 226 13 9 9 -17 12 -120 12 -127 0 -232 13 -232 30 0 4 6
13 14 19 39 33 21 193 -26 226 -27 18 -38 19 -38 3z m995 -318 c-3 -5 -15 -10
-25 -10 -10 0 -22 5 -25 10 -4 6 7 10 25 10 18 0 29 -4 25 -10z m-1330 -42
c27 -12 28 -26 3 -42 -12 -7 -23 -5 -42 7 -52 34 -20 62 39 35z m1600 -78 c3
-5 4 -14 0 -20 -8 -13 -35 -1 -35 16 0 16 26 19 35 4z m-343 -22 c-18 -18 -15
-36 8 -43 11 -3 20 -13 20 -21 0 -24 -17 -16 -47 23 -31 38 -63 40 -43 3 10
-19 9 -19 -22 -2 -18 9 -35 18 -38 20 -3 2 4 10 14 18 25 18 126 20 108 2z
m452 -34 c9 -3 16 -12 16 -20 0 -10 -13 -14 -45 -14 -32 0 -45 4 -45 14 0 22
40 33 74 20z m94 -76 c3 -16 -5 -18 -62 -18 -36 0 -66 2 -66 5 0 2 12 11 28
20 36 20 96 16 100 -7z m-440 -15 c-39 -16 -50 -33 -23 -33 25 0 17 -17 -11
-24 -28 -7 -214 -6 -214 2 0 2 8 14 18 27 17 21 19 21 29 7 9 -14 13 -15 24
-4 18 17 37 15 42 -5 3 -12 7 -8 12 15 l8 32 76 -1 76 -1 -37 -15z m207 7 c-3
-5 -26 -10 -51 -10 -24 0 -44 5 -44 10 0 6 23 10 51 10 31 0 48 -4 44 -10z
m765 -990 c-36 -12 -120 -12 -120 0 0 6 30 10 73 9 51 -1 65 -3 47 -9z m410
-631 c0 -5 -17 -17 -37 -26 -30 -12 -59 -14 -133 -10 -140 9 -162 18 -75 33
92 15 245 17 245 3z m-390 -19 c0 -12 -45 -24 -60 -15 -5 3 -8 11 -5 16 8 12
65 12 65 -1z m300 -199 l65 -6 -48 -8 c-59 -10 -265 3 -227 14 31 9 123 9 210
0z m-300 -20 c0 -13 -27 -21 -45 -15 -8 4 -12 10 -9 15 7 12 54 12 54 0z m307
-131 c23 0 43 -4 43 -9 0 -15 -108 -21 -225 -13 -102 7 -108 9 -75 20 22 7 69
10 124 7 49 -3 109 -5 133 -5z m-37 -448 c0 -5 -11 -14 -25 -20 -32 -15 -248
-16 -224 -2 34 20 249 38 249 22z m-83 -138 c-16 -17 -165 -33 -297 -33 -198
0 -155 16 75 27 99 5 191 10 204 10 13 1 21 -1 18 -4z m-81 -203 c-10 -15
-120 -41 -226 -51 -58 -6 -113 -13 -122 -16 -34 -10 -17 7 25 26 28 13 85 22
176 29 73 5 136 12 139 15 8 9 14 7 8 -3z m-26 -80 c0 -17 -63 -31 -136 -31
-85 0 -114 19 -32 21 29 1 67 5 83 9 43 11 85 11 85 1z m-3437 -88 c20 -3 40
-9 43 -14 9 -15 -65 -10 -96 6 -35 18 -40 30 -7 20 12 -4 39 -9 60 -12z m749
-639 c121 -14 146 -20 137 -31 -25 -29 -276 3 -325 43 -18 14 -17 15 11 10 17
-3 96 -13 177 -22z m447 -96 c-30 -56 -80 -62 -209 -23 -103 31 -177 33 -213
5 -25 -20 -25 -20 -30 0 -3 12 -14 20 -29 21 -20 1 -19 2 7 9 17 4 132 7 256
6 209 -1 226 -2 218 -18z m245 -15 c-10 -7 -25 -11 -32 -8 -8 3 -29 5 -48 5
-22 0 -33 4 -29 10 4 6 34 10 67 9 54 -2 59 -4 42 -16z m1045 -35 c-108 -43
-129 -49 -184 -49 -39 -1 -63 -9 -108 -37 -47 -28 -69 -36 -108 -36 -70 0 -81
16 -32 48 53 35 94 46 178 46 l70 1 -25 21 c-25 20 -29 21 -377 14 -237 -5
-353 -4 -353 3 0 15 79 17 569 18 l445 1 -75 -30z m-1480 -53 c1 -2 0 -8 -4
-14 -10 -17 -67 -12 -105 10 l-35 20 70 -7 c39 -3 72 -7 74 -9z m622 -35 c59
0 99 -4 99 -10 0 -6 -28 -10 -65 -10 -39 0 -65 -4 -65 -11 0 -6 -5 -7 -12 -2
-7 4 -33 10 -58 13 -32 4 -46 10 -48 23 -3 15 0 16 23 7 14 -5 71 -10 126 -10z
m-446 -30 c-3 -5 -33 -10 -66 -10 -38 0 -58 4 -54 10 3 6 33 10 66 10 38 0 58
-4 54 -10z m320 -39 c3 -6 -17 -11 -47 -13 -40 -2 -54 -7 -56 -20 -7 -37 260
-35 335 3 40 20 143 27 143 9 0 -5 -20 -10 -44 -10 -24 0 -64 -9 -89 -20 -105
-46 -291 -49 -434 -5 -82 24 -75 30 72 59 40 8 114 6 120 -3z m185 -248 c-7
-33 -16 -53 -23 -50 -20 6 -19 34 3 84 27 59 37 41 20 -34z m-310 -65 c0 -25
-3 -29 -10 -18 -13 20 -13 50 0 50 6 0 10 -15 10 -32z m49 -233 c1 -29 -2 -36
-9 -25 -14 23 -23 95 -14 122 7 21 9 19 15 -17 4 -22 8 -58 8 -80z m334 -696
c26 -32 21 -38 -20 -20 -83 36 -136 67 -150 88 -14 20 -8 19 69 -13 45 -19 91
-44 101 -55z m77 -110 c12 -22 19 -46 17 -52 -4 -12 -47 64 -47 83 0 19 10 10
30 -31z m-326 -50 c38 -33 76 -119 76 -171 0 -25 3 -29 20 -25 16 4 22 -2 30
-32 5 -21 29 -67 51 -102 49 -75 79 -154 79 -206 -1 -37 -1 -37 -29 29 -30 70
-37 83 -136 243 -34 55 -70 115 -80 134 -30 59 -65 161 -55 161 5 0 25 -14 44
-31z m84 -987 c1 -42 9 -139 17 -214 18 -161 19 -240 5 -218 -5 8 -10 34 -10
56 0 23 -7 55 -15 70 -25 50 -37 134 -33 238 3 81 17 147 31 146 1 0 3 -35 5
-78z"/>
<path d="M4170 7560 c0 -67 1 -70 23 -70 13 0 31 8 40 18 36 40 10 122 -39
122 -23 0 -24 -2 -24 -70z"/>
<path d="M3482 7230 c1 -13 9 -25 16 -28 17 -5 15 23 -4 39 -14 11 -15 10 -12
-11z"/>
<path d="M3837 7243 c-19 -18 -5 -33 32 -33 42 0 63 16 40 31 -17 10 -63 12
-72 2z"/>
<path d="M3581 7193 c21 -24 73 -43 121 -43 39 0 79 14 68 23 -9 7 -155 37
-179 37 -21 0 -22 -2 -10 -17z"/>
<path d="M3460 7155 c0 -33 77 -59 87 -28 5 13 -18 27 -59 37 -21 5 -28 3 -28
-9z"/>
<path d="M3842 7153 c4 -21 64 -29 88 -13 13 9 13 11 0 20 -8 5 -32 10 -53 10
-31 0 -38 -3 -35 -17z"/>
<path d="M3970 7039 c-30 -5 -59 -14 -64 -19 -7 -7 0 -8 22 -4 17 4 94 -1 169
-11 76 -9 158 -15 183 -13 l45 3 -30 17 c-64 35 -206 46 -325 27z"/>
<path d="M3412 6998 c-19 -19 -15 -23 34 -26 39 -3 45 0 42 15 -4 22 -57 30
-76 11z"/>
<path d="M5190 6989 c0 -18 5 -20 47 -17 36 2 49 7 51 21 3 14 -4 17 -47 17
-45 0 -51 -3 -51 -21z"/>
<path d="M5425 6957 c-11 -9 -17 -19 -12 -23 15 -15 232 -17 273 -3 l39 14
-65 6 c-36 3 -99 9 -140 13 -60 6 -79 5 -95 -7z"/>
<path d="M3903 6951 c-63 -11 -63 -21 -2 -14 30 2 126 -2 214 -10 154 -14 241
-13 258 2 4 5 -54 11 -130 15 -76 3 -174 8 -218 11 -44 2 -99 0 -122 -4z"/>
<path d="M4762 6878 c-20 -20 -14 -28 22 -28 44 0 66 9 66 26 0 18 -71 19 -88
2z"/>
<path d="M4595 6871 c-3 -5 -1 -12 5 -16 14 -9 52 4 45 16 -8 12 -42 12 -50 0z"/>
<path d="M3070 6807 l-35 -11 60 -7 c33 -4 94 -14 135 -22 76 -14 146 -12 156
4 3 5 -6 9 -19 9 -13 0 -66 9 -118 20 -105 22 -129 23 -179 7z"/>
<path d="M3860 6793 c-15 -6 69 -32 108 -33 38 0 24 17 -22 29 -48 12 -63 13
-86 4z"/>
<path d="M4148 6771 c-26 -4 -50 -9 -52 -12 -6 -6 377 -29 479 -29 37 -1 67
-6 79 -15 21 -16 86 -21 86 -6 0 10 -104 36 -207 51 -97 14 -326 21 -385 11z"/>
<path d="M5183 6730 c-37 -15 -27 -28 27 -35 36 -5 55 -3 67 6 14 12 12 15
-13 26 -34 14 -51 15 -81 3z"/>
<path d="M3050 6707 l-35 -11 60 -7 c33 -4 95 -14 138 -22 49 -9 90 -12 113
-7 44 10 55 20 22 20 -14 0 -67 9 -119 20 -105 22 -129 23 -179 7z"/>
<path d="M3530 6710 c0 -19 31 -23 48 -6 15 15 14 16 -16 16 -18 0 -32 -5 -32
-10z"/>
<path d="M3846 6671 c-3 -5 13 -11 35 -15 47 -7 77 4 39 15 -36 10 -68 10 -74
0z"/>
<path d="M4185 6657 c-28 -13 -23 -14 80 -20 61 -4 153 -9 206 -13 70 -5 106
-3 135 7 l39 14 -100 7 c-283 18 -330 19 -360 5z"/>
<path d="M2916 6627 c-17 -12 -13 -14 30 -15 27 -1 82 -9 123 -18 82 -17 167
-20 202 -8 18 6 -9 13 -106 30 -151 26 -224 29 -249 11z"/>
<path d="M4820 6628 l-35 -11 65 -14 c73 -16 191 -12 233 7 15 7 27 16 27 19
0 11 -255 10 -290 -1z"/>
<path d="M3540 6562 c0 -11 21 -16 115 -28 63 -9 84 -8 125 2 l25 6 -25 10
c-38 14 -240 23 -240 10z"/>
<path d="M3956 6551 c18 -18 311 -43 454 -39 157 4 214 23 78 26 -46 1 -137 6
-203 12 -153 12 -342 13 -329 1z"/>
<path d="M2920 6522 c-27 -6 9 -13 160 -35 299 -42 462 -57 615 -55 l140 1
-95 8 c-52 4 -192 24 -310 44 -216 37 -432 52 -510 37z"/>
<path d="M4058 6433 c-74 -12 -3 -21 270 -32 219 -9 331 -10 426 -2 71 6 131
13 133 15 2 2 -112 6 -254 10 -142 3 -323 8 -403 10 -80 2 -157 2 -172 -1z"/>
<path d="M2941 6411 c33 -21 476 -67 458 -47 -3 3 -46 15 -95 26 -100 22 -391
39 -363 21z"/>
<path d="M3530 6351 c-12 -8 -7 -11 22 -11 21 0 68 -5 106 -12 74 -12 141 -4
109 13 -26 15 -219 22 -237 10z"/>
<path d="M2856 6319 c22 -25 24 -25 213 -49 248 -32 525 -50 726 -48 175 1
177 1 75 9 -58 4 -186 17 -285 29 -301 35 -606 68 -678 73 -66 5 -68 4 -51
-14z"/>
<path d="M4075 6320 c44 -5 141 -17 215 -26 171 -22 393 -24 438 -5 17 7 32
16 32 20 0 4 -57 6 -127 6 -71 0 -243 3 -383 7 -166 5 -227 4 -175 -2z"/>
<path d="M2902 6225 c-65 -16 -72 -21 -35 -29 169 -35 573 -63 1173 -81 343
-11 533 -20 594 -31 92 -16 131 -13 181 15 30 16 30 16 -65 22 -52 4 -297 7
-545 8 -612 2 -786 15 -980 73 -117 36 -239 45 -323 23z"/>
<path d="M4260 6211 c-26 -6 -11 -9 65 -10 55 -1 152 -6 215 -10 132 -10 237
-4 221 12 -13 13 -449 19 -501 8z"/>
<path d="M2840 6103 l-35 -17 70 -7 c179 -16 285 -21 319 -15 21 4 35 10 32
13 -11 12 -222 43 -286 43 -39 -1 -79 -7 -100 -17z"/>
<path d="M3585 6020 c372 -31 1245 -54 1245 -31 0 5 -87 11 -192 14 -106 3
-240 10 -298 15 -58 6 -301 13 -540 16 l-435 5 220 -19z"/>
<path d="M4415 5891 c-12 -5 56 -10 160 -13 179 -5 236 0 160 14 -54 9 -295 9
-320 -1z"/>
<path d="M3424 5799 c-11 -4 37 -7 106 -7 69 0 118 2 110 4 -34 7 -199 9 -216
3z"/>
<path d="M4040 5773 c228 -14 861 -17 905 -4 l30 9 -35 3 c-19 1 -273 3 -565
3 -514 2 -524 1 -335 -11z"/>
<path d="M4132 5671 c-21 -13 179 -28 308 -22 25 1 122 -1 215 -3 202 -6 184
7 -30 23 -170 13 -474 14 -493 2z"/>
<path d="M5534 5634 c-18 -14 -16 -15 31 -10 63 8 84 26 29 26 -22 0 -49 -7
-60 -16z"/>
<path d="M2730 5616 c0 -3 12 -12 28 -19 30 -16 442 -31 442 -17 0 19 -100 32
-277 37 -106 3 -193 3 -193 -1z"/>
<path d="M3306 5572 c-14 -23 37 -32 188 -32 85 0 200 -5 255 -11 94 -11 211
-6 211 10 0 4 -98 12 -217 19 -120 7 -266 15 -324 19 -72 4 -108 2 -113 -5z"/>
<path d="M5243 5563 c-24 -2 -43 -9 -43 -14 0 -6 9 -8 19 -4 11 3 59 -1 108
-10 121 -21 175 -20 204 5 l24 19 -85 1 c-47 0 -107 2 -135 4 -27 2 -69 2 -92
-1z"/>
<path d="M4110 5551 l-45 -6 55 -8 c94 -13 694 -21 714 -10 13 7 -51 12 -215
17 -129 3 -286 8 -349 10 -63 2 -135 1 -160 -3z"/>
<path d="M2770 5358 c-64 -15 -34 -23 135 -37 146 -13 267 -4 289 20 8 9 7 10
-7 6 -10 -4 -82 0 -160 8 -160 17 -193 17 -257 3z"/>
<path d="M4265 5360 c-49 -4 -128 -9 -175 -10 -81 -3 -82 -3 -35 -10 28 -5
104 -9 170 -9 66 -1 203 -6 304 -11 101 -6 186 -8 190 -5 7 8 -23 27 -59 38
-38 11 -294 16 -395 7z"/>
<path d="M3730 5320 c-67 -4 -79 -7 -57 -14 31 -9 145 0 167 14 12 8 11 9 -5
8 -11 -1 -58 -4 -105 -8z"/>
<path d="M2670 5277 c0 -36 132 -65 335 -73 138 -6 294 11 317 34 14 14 -396
51 -564 52 -67 0 -88 -3 -88 -13z"/>
<path d="M4346 5221 c-3 -5 13 -11 35 -15 47 -7 77 4 39 15 -36 10 -68 10 -74
0z"/>
<path d="M4634 5220 c-53 -21 -34 -30 63 -30 l98 1 -24 19 c-25 21 -97 26
-137 10z"/>
<path d="M3446 5201 c-7 -10 63 -23 78 -14 6 4 0 10 -14 14 -36 10 -58 10 -64
0z"/>
<path d="M5110 5203 c-19 -2 -39 -9 -45 -15 -7 -6 62 -9 212 -6 130 2 226 7
232 13 10 10 -329 17 -399 8z"/>
<path d="M3303 5107 c-3 -5 -3 -10 -2 -11 7 -5 345 -26 404 -25 102 2 121 15
35 24 -118 12 -431 21 -437 12z"/>
<path d="M2670 5100 c0 -41 158 -63 374 -53 121 5 136 8 120 20 -10 7 -37 18
-59 25 -50 13 -435 21 -435 8z"/>
<path d="M4162 5102 c-9 -6 4 -11 38 -15 49 -6 80 -1 80 12 0 10 -103 12 -118
3z"/>
<path d="M4537 5099 c-31 -18 -8 -29 64 -29 52 0 69 3 69 14 0 8 -7 17 -16 20
-25 9 -97 6 -117 -5z"/>
<path d="M4006 5002 c-3 -5 15 -12 40 -15 46 -5 84 0 84 12 0 10 -118 13 -124
3z"/>
<path d="M5491 4996 c-9 -11 -8 -15 5 -20 23 -9 104 -7 104 2 0 31 -87 45
-109 18z"/>
<path d="M3826 4981 c-7 -10 22 -19 47 -13 9 2 17 8 17 13 0 12 -57 12 -64 0z"/>
<path d="M4555 4981 l-110 -3 60 -13 c123 -28 120 -28 145 -7 14 11 23 22 20
24 -3 1 -54 1 -115 -1z"/>
<path d="M3467 4970 c-27 -5 -52 -11 -55 -14 -3 -3 71 -6 164 -6 125 1 164 3
151 11 -25 14 -199 20 -260 9z"/>
<path d="M5387 4923 c-4 -3 -7 -12 -7 -20 0 -9 15 -13 50 -13 43 0 50 3 50 20
0 17 -7 20 -43 20 -24 0 -47 -3 -50 -7z"/>
<path d="M2748 4891 c35 -30 85 -42 207 -48 108 -5 214 4 325 28 54 12 54 12
25 22 -16 5 -154 11 -305 14 l-275 4 23 -20z"/>
<path d="M3442 4879 c11 -32 48 -38 242 -33 105 3 195 9 199 13 4 4 -84 11
-195 15 -112 3 -214 9 -227 13 -18 4 -23 2 -19 -8z"/>
<path d="M4540 4883 c0 -15 23 -33 43 -33 30 0 16 34 -16 38 -15 2 -27 -1 -27
-5z"/>
<path d="M4579 4788 c-9 -37 -7 -39 34 -36 56 4 59 32 5 36 -21 2 -38 2 -39 0z"/>
<path d="M5715 4783 c-101 -16 -3 -36 180 -36 139 0 212 10 196 26 -11 11
-319 20 -376 10z"/>
<path d="M3390 4760 c0 -5 11 -10 24 -10 14 0 28 5 31 10 4 6 -7 10 -24 10
-17 0 -31 -4 -31 -10z"/>
<path d="M3517 4763 c-4 -7 14 -13 46 -17 28 -3 69 -9 89 -12 21 -3 46 -3 55
1 16 6 15 8 -7 16 -38 15 -176 23 -183 12z"/>
<path d="M3768 4759 c-28 -16 -21 -29 16 -29 19 0 44 9 57 20 l24 19 -40 0
c-22 0 -48 -4 -57 -10z"/>
<path d="M3970 4760 c-11 -7 -5 -10 23 -10 20 0 37 5 37 10 0 13 -40 13 -60 0z"/>
<path d="M2740 4722 c-16 -5 -25 -15 -25 -27 0 -22 15 -23 404 -38 l144 -6
-20 21 c-36 35 -115 49 -303 53 -96 3 -186 1 -200 -3z"/>
<path d="M4546 4661 c-7 -10 46 -31 79 -31 29 0 37 10 24 27 -13 15 -95 18
-103 4z"/>
<path d="M3500 4640 c-14 -5 59 -8 175 -9 114 0 206 3 215 9 18 12 -353 12
-390 0z"/>
<path d="M4485 4571 c-7 -13 -8 -12 28 -15 15 -1 26 3 24 9 -5 14 -44 18 -52
6z"/>
<path d="M3635 4520 c-4 -6 15 -10 49 -10 31 0 56 5 56 10 0 6 -22 10 -49 10
-28 0 -53 -4 -56 -10z"/>
<path d="M3865 4520 c-3 -5 0 -10 8 -10 8 0 22 -9 32 -20 17 -18 31 -20 182
-20 107 0 162 3 158 10 -4 6 -65 10 -148 10 -126 0 -145 3 -167 20 -27 21 -55
26 -65 10z"/>
<path d="M4590 4511 c0 -17 6 -21 31 -21 24 0 30 4 27 18 -2 10 -14 18 -31 20
-22 3 -27 -1 -27 -17z"/>
<path d="M4270 4381 c0 -11 36 -21 78 -21 44 0 41 16 -5 24 -53 8 -73 7 -73
-3z"/>
<path d="M4578 4360 c-31 -19 -19 -27 50 -33 37 -3 86 -9 110 -13 53 -8 55 7
5 32 -45 21 -141 29 -165 14z"/>
<path d="M3570 4330 c0 -13 7 -20 20 -20 13 0 20 7 20 20 0 13 -7 20 -20 20
-13 0 -20 -7 -20 -20z"/>
<path d="M3636 4321 c-15 -24 85 -28 124 -6 23 13 21 14 -47 15 -39 0 -74 -4
-77 -9z"/>
<path d="M3875 4320 c3 -5 15 -10 25 -10 10 0 22 5 25 10 4 6 -7 10 -25 10
-18 0 -29 -4 -25 -10z"/>
<path d="M2980 4290 c42 -32 101 -40 291 -40 160 0 180 2 169 15 -27 33 -107
45 -299 45 -185 0 -186 0 -161 -20z"/>
<path d="M4085 4300 c-8 -13 165 -13 185 0 10 7 -16 10 -82 10 -54 0 -100 -4
-103 -10z"/>
<path d="M4322 4298 c-20 -20 -14 -28 22 -28 31 0 53 19 39 34 -11 10 -48 7
-61 -6z"/>
<path d="M3550 4247 c0 -3 7 -13 16 -21 26 -27 174 -17 174 11 0 5 -43 10 -95
11 -52 2 -95 1 -95 -1z"/>
<path d="M4630 4231 c0 -17 6 -21 31 -21 24 0 30 4 27 18 -2 10 -14 18 -31 20
-22 3 -27 -1 -27 -17z"/>
<path d="M3790 4220 c0 -6 26 -10 59 -10 33 0 63 5 66 10 4 6 -18 10 -59 10
-37 0 -66 -4 -66 -10z"/>
<path d="M3980 4220 c0 -5 20 -10 45 -10 25 0 45 5 45 10 0 6 -20 10 -45 10
-25 0 -45 -4 -45 -10z"/>
<path d="M4248 4213 c-31 -8 -20 -20 25 -27 23 -3 59 -9 80 -12 24 -4 43 -2
53 7 14 11 13 14 -8 25 -22 13 -114 17 -150 7z"/>
<path d="M4478 4183 c-21 -8 -38 -19 -38 -24 0 -5 52 -9 115 -9 122 0 143 9
80 36 -44 18 -110 17 -157 -3z"/>
<path d="M4690 4170 c0 -16 7 -20 33 -20 21 0 41 8 52 20 18 20 17 20 -33 20
-45 0 -52 -3 -52 -20z"/>
<path d="M3995 4133 c-47 -12 -30 -19 49 -22 50 -1 87 2 91 9 4 6 -9 10 -37
10 -24 0 -52 2 -63 4 -11 2 -29 2 -40 -1z"/>
<path d="M4330 4128 l-25 -9 25 -14 c35 -20 124 -19 140 0 7 9 11 17 9 19 -11
9 -127 12 -149 4z"/>
<path d="M3783 4053 c-26 -10 -12 -18 36 -21 27 -2 52 2 56 8 4 6 -5 10 -24
10 -16 0 -35 2 -43 4 -7 3 -19 2 -25 -1z"/>
<path d="M4170 4030 c-12 -8 -12 -10 3 -16 20 -7 47 1 47 16 0 12 -30 13 -50
0z"/>
<path d="M4420 4034 c-102 -19 -130 -27 -125 -35 4 -5 72 -9 153 -10 81 0 169
-4 195 -8 53 -9 57 0 14 33 -22 16 -45 20 -120 22 -50 1 -103 0 -117 -2z"/>
<path d="M3768 3954 c-37 -11 -15 -19 56 -22 45 -2 77 1 81 7 4 7 -5 11 -22
11 -15 0 -44 2 -63 4 -19 3 -43 2 -52 0z"/>
<path d="M3764 3866 c-10 -8 -16 -17 -12 -21 8 -8 48 13 48 25 0 14 -13 12
-36 -4z"/>
<path d="M3831 3871 c-10 -6 -2 -11 29 -16 26 -4 46 -3 53 4 8 8 6 11 -8 11
-11 0 -29 3 -40 5 -11 3 -26 1 -34 -4z"/>
<path d="M4173 3868 c-24 -5 -43 -13 -43 -18 0 -15 33 -20 123 -18 65 1 87 5
87 15 0 30 -82 41 -167 21z"/>
<path d="M4384 3845 c-8 -21 4 -35 32 -35 29 0 32 25 5 40 -26 13 -31 13 -37
-5z"/>
<path d="M4560 3829 c0 -18 5 -20 42 -17 31 2 44 8 46 21 3 14 -4 17 -42 17
-40 0 -46 -3 -46 -21z"/>
<path d="M3738 3797 c20 -24 66 -35 182 -41 58 -3 139 -15 180 -26 41 -10 115
-25 165 -31 78 -10 98 -10 148 5 31 9 57 20 57 25 0 4 -42 11 -92 14 -51 4
-169 18 -263 32 -93 14 -219 28 -280 32 -100 6 -109 5 -97 -10z"/>
<path d="M4363 3785 c-7 -20 1 -28 32 -31 30 -3 34 20 6 36 -26 13 -31 13 -38
-5z"/>
<path d="M4500 3764 c0 -28 29 -36 110 -29 65 6 80 10 80 24 0 14 -13 16 -95
16 -64 0 -95 -4 -95 -11z"/>
<path d="M4850 3720 c-10 -10 -19 -23 -22 -31 -3 -10 -19 -10 -84 4 -119 25
-220 24 -269 -2 -48 -25 -93 -26 -263 -5 -121 14 -187 12 -224 -8 -10 -5 -18
-13 -18 -18 0 -6 163 -10 436 -10 403 0 769 -13 786 -29 4 -3 -105 -4 -241 -3
-214 3 -253 1 -280 -12 -58 -30 -37 -37 102 -31 76 4 145 2 162 -4 22 -7 -26
-10 -172 -10 -209 -1 -238 -7 -169 -36 28 -12 81 -14 288 -9 139 3 259 8 267
10 28 9 -11 35 -48 33 -49 -3 -61 -1 -61 11 0 5 50 11 117 12 l117 3 17 55 17
55 53 1 c75 0 79 2 79 23 0 18 -11 19 -286 19 -260 0 -288 -2 -304 -18z m242
-38 c-12 -10 -34 -12 -76 -8 -32 3 -71 6 -85 7 -24 0 -24 1 -6 9 11 5 57 8
102 7 71 -2 80 -4 65 -15z"/>
<path d="M4123 3609 c-62 -18 -41 -26 80 -32 67 -4 154 -9 192 -13 l70 -6 -25
21 c-14 11 -47 25 -73 31 -58 12 -200 12 -244 -1z"/>
<path d="M5363 3613 c-7 -2 -13 -10 -13 -17 0 -18 123 -30 150 -16 32 17 23
27 -32 34 -60 7 -87 7 -105 -1z"/>
<path d="M4210 2904 c0 -18 27 -43 48 -44 7 0 12 12 12 30 0 27 -3 30 -30 30
-21 0 -30 -5 -30 -16z"/>
<path d="M3934 2855 c-11 -39 -11 -174 -1 -199 7 -18 9 -18 32 4 52 48 52 138
0 197 l-23 28 -8 -30z"/>
<path d="M3811 2569 c-92 -16 -105 -39 -34 -63 63 -21 80 -20 86 7 3 12 9 32
12 45 4 12 3 21 -1 21 -5 -1 -33 -5 -63 -10z"/>
<path d="M3960 2535 c-29 -31 -22 -39 24 -31 30 6 56 29 56 50 0 17 -59 3 -80
-19z"/>
<path d="M3833 2377 c-50 -87 -73 -142 -73 -173 0 -33 42 -79 65 -71 18 7 18
6 -2 94 -7 30 21 41 46 19 27 -25 31 -19 15 20 -11 26 -13 54 -8 110 4 41 5
74 3 74 -2 0 -23 -33 -46 -73z"/>
<path d="M4150 2052 c0 -19 18 -42 32 -42 12 0 9 35 -4 48 -17 17 -28 15 -28
-6z"/>
<path d="M4283 1403 c-26 -26 -65 -30 -105 -9 -25 13 -29 13 -38 -4 -5 -10
-10 -33 -10 -50 0 -27 2 -30 19 -20 29 15 57 12 100 -9 l38 -20 18 60 c21 67
12 88 -22 52z"/>
<path d="M4212 1244 c-14 -27 -70 -49 -145 -58 -39 -5 -66 -15 -85 -31 l-27
-24 38 -1 c34 0 37 -2 37 -28 0 -19 -11 -39 -35 -62 -40 -38 -49 -90 -17 -90
30 0 50 22 64 73 12 41 23 55 83 100 78 59 109 96 103 123 -4 18 -5 18 -16 -2z"/>
<path d="M4590 1171 c0 -10 15 -37 33 -60 24 -30 37 -39 52 -35 49 14 59 9 91
-43 33 -56 48 -59 38 -8 -5 27 -1 36 21 54 l28 21 -26 0 c-14 0 -63 20 -110
45 -94 49 -127 56 -127 26z"/>
<path d="M4689 1011 c32 -62 43 -121 33 -169 -9 -38 -8 -42 9 -42 30 0 59 36
59 73 -1 59 -71 177 -106 177 -12 0 -11 -8 5 -39z"/>
</g>
</svg>
